<!DOCTYPE svg>
<svg
	id="high-top"
	x="0px" y="0px"
	viewBox="0 0 841.9 595.3"
	enable-background="new 0 0 841.9 595.3" 
	version="1.1" 
	xmlns="http://www.w3.org/2000/svg" 
	xmlns:xlink="http://www.w3.org/1999/xlink"
	xml:space="preserve">
<pattern  width="15" height="15" patternUnits="userSpaceOnUse" id="New_Pattern_Swatch_4" viewBox="0 -15 15 15" overflow="visible">
	<g>
		<polygon fill="none" points="15,0 0,0 0,-15 15,-15 		"/>
		<polygon fill="none" stroke="#D0D2D3" points="14.5,-0.5 0.5,-0.5 0.5,-14.5 14.5,-14.5 		"/>
	</g>
</pattern>
<path class="body" id="tongue" fill="#FFFFFF" stroke="#231F20" stroke-width="1.167" stroke-miterlimit="10" d="M250.3,366.4
	c0,0,1.1-10.6,10.2-15.4c0,0-2.6-4.1,39.6-21.3c100-40.7,168.4-92.1,203-209.2c8-27,12.2-56.4,29.4-54.9c0,0,116.6,23.5,107.2,93.9
	C639.8,159.5,319.1,487,250.3,366.4z"/>
<path id="tongue-thread" fill="none" stroke="#231F20" stroke-width="1.167" stroke-linecap="round" stroke-dasharray="8.1693,2.2746" d="
	M526.9,69.2c6.7,1.4,114.6,26,108.1,88.1"/>
<g class="laces" id="bottom-laces" fill="#FFFFFF">
	<path stroke="#231F20" stroke-width="1.167" stroke-miterlimit="10" d="M541.2,185.9c0,0-28.9-11.2-49.1-25.7
		c0,0-4.1-1.8-2-4.5c2.2-2.8,2.7-9,2.2-11.4c0,0,3-2.1,4.3-0.9c0,0,30.7,22,46.3,26.6C542.9,170,557.4,180.2,541.2,185.9z"/>
	<path stroke="#231F20" stroke-width="1.167" stroke-miterlimit="10" d="M517.5,226.9c0,0-27.1-15-45.2-32.1
		c0,0-3.8-2.3-1.4-4.7c2.6-2.5,3.9-8.5,3.7-11c0,0,3.2-1.7,4.3-0.4c0,0,27.4,25.9,42.3,32.6C521.3,211.3,534.3,223.5,517.5,226.9z"
		/>
	<path stroke="#231F20" stroke-width="1.167" stroke-miterlimit="10" d="M484.6,268c0,0-21.7-19.1-36.2-39.4
		c0,0-3.2-4.6-0.4-6.5c3-2,5.5-5.3,5.8-7.8c0,0,4.7-2.8,5.6-1.3c0,0,18.6,31,31.9,40.4C491.3,253.5,501.7,267.9,484.6,268z"/>
	<path stroke="#231F20" stroke-width="1.167" stroke-miterlimit="10" d="M441.1,311c0,0-18.9-22.8-28.6-45.7
		c0,0-2.5-3.7,0.6-4.9c3.4-1.3,7-4.7,7.8-7.1c0,0,3.1-1.1,4.3,0.5c0,0,14.6,32.3,25.5,44.4C450.8,298.2,457.9,314.5,441.1,311z"/>
	<path stroke="#231F20" stroke-width="1.167" stroke-miterlimit="10" d="M390,344.2c0,0-14.5-25.8-20.1-50.1
		c0,0-1.8-4,1.5-4.7c3.5-0.7,7.9-3.4,9.2-5.6c0,0,2.9-2.4,5.1,1.6c0,0,7.5,34,16.2,47.8C401.8,333.4,405.8,350.7,390,344.2z"/>
	<path stroke="#231F20" stroke-width="1.167" stroke-miterlimit="10" d="M336.5,361.1c0,0-13.1-17.9-15.6-42.7
		c0,0-1.3-4.2,2-4.5c3.6-0.2,7.2-2.7,8.7-4.7c0,0,5.4-2,6,2.4c0,0,5.1,25.4,11.9,40.2C349.6,351.8,351.5,369.4,336.5,361.1z"/>
	<path stroke="#231F20" stroke-width="1.167" stroke-miterlimit="10" d="M288.2,380.6c0,0-13.9-17.2-17.6-41.9
		c0,0-1.5-4.2,1.8-4.6c3.6-0.4,9.9-3.1,11.3-5.1c0,0,4.4-0.1,4.5,1.6c0,0,5,25.6,12.6,40C300.8,370.7,303.6,388.2,288.2,380.6z"/>
</g>
<path class="body" id="toe" fill="#FFFFFF" stroke="#231F20" stroke-width="1.167" stroke-miterlimit="10" d="M22.2,443.5
	c1.2-8.6-3.3-11.7,0.9-20.7c7.8-16.7,15.7-18.8,27.4-20.7c110.5-17.9,182.6-40.1,229.8-57.1c0,0,29.2,30.4,32.6,28.7
	c2.1-1.3-80.1,90.7-80.1,90.7L22.2,443.5z"/>
<path class="body" id="side" fill="#FFFFFF" stroke="#231F20" stroke-width="1.167" stroke-miterlimit="10" d="M434,263
	c-52.9,42.8-149.1,70-149.1,70c-22.9,6.6-39.4,20-48,42.8c-11,29.2-16.5,60.7-16.5,60.7l30.3,39.7L684.9,491l106.6-44.3
	c0,0,41.7-72,11.4-145.9C772.5,226.8,747.1,105,747.1,105l-190.2-3c-25.2-1.9-34.4,18.3-35.9,25C513.9,159.6,497.6,218.2,434,263z"
	/>
<g id="side-thread">
	<path fill="none" stroke="#231F20" stroke-width="1.167" stroke-linecap="round" stroke-dasharray="8.1693,2.2746" d="M252.9,472
		l-28-36.6c1.3-7.1,6.7-33.6,15.9-58.1c7.8-20.5,22.5-33.7,45.2-40.2c0.2-0.1,24.6-7,55.1-19.1c41-16.3,73.1-33.6,95.4-51.6
		c62-43.7,80.3-100,88.6-138.5c0-0.2,5.4-21.8,28.5-21.8c0.9,0,1.9,0,2.9,0.1c0.1,0,0.2,0,0.2,0l186.8,3
		c4.3,20.1,27.9,126.5,55.3,193.1c27.1,66-5.3,131.3-10.5,140.9l-104.4,43.4L252.9,472z"/>
	<path fill="none" stroke="#231F20" stroke-width="1.167" stroke-linecap="round" stroke-dasharray="8.1693,2.2746" d="M258.6,460.9
		L237,432.6c2.2-10.6,7-31.6,14.4-51.3c6.5-17.2,18.5-27.8,37.7-33.3c0.2-0.1,25.1-7.2,56.2-19.5c41.9-16.6,74.3-35.2,98.1-53.1
		c69.3-52.1,82.6-109.5,92.3-138c6.8-20.3,21.7-18.9,22-18.8l176.9,1.8c7.4,33.2,29.1,125.6,53.9,186.2
		c22.9,55.9-0.7,112.3-8.2,127.8L682,475.3L258.6,460.9z"/>
	<path fill="none" stroke="#231F20" stroke-width="1.167" stroke-linecap="round" stroke-dasharray="8.1693,2.2746" d="M276.9,458.4
		l-15-19.8c2.4-10.3,8.7-35.7,13.4-48.3c3-7.9,7.7-14,20.9-17.8l0,0c1.6-0.5,27-7.8,58.5-20.3c43.9-17.4,78.9-36.4,104-56.4
		c31.6-22.5,56.6-50.3,74.4-82.6c10.9-19.8,20.6-46.1,24.8-62.3c3.3-12.9,17.7-11.9,17.7-11.9l158.7,2.7
		c10.2,43.6,8.9,122.1,30.5,174.7c15.9,38.8,4.2,78.9-3.8,98.4l-8,56.2L276.9,458.4z"/>
</g>
<path 
	class="body" id="heel" fill="#FFFFFF" stroke="#231F20" stroke-width="1.1" stroke-miterlimit="10" 
	d="M794.5,446.6c0,0,36.1-74,9.8-150 c-26.2-76-27.2-201.8-27.2-201.8l-32.1-0.3c0,0-20.2-1.7-18.3,28.9c2.5,40.6,9.5,93.7,27,171.7c17,75.8-21.7,151.9-21.7,151.9 L794.5,446.6z"/>
<g id="heel-thread">
	<path fill="none" stroke="#231F20" stroke-width="1.167" stroke-linecap="round" stroke-dasharray="8.1693,2.2746" d="M738.8,442.8
		c3.5-7.9,9.5-22.8,14.6-42.1c7-26.5,13.5-66.4,4.5-106.4C742.8,227,734,171,731,123.2c-0.6-9.5,1.1-16.6,4.8-20.6
		c3.3-3.5,7.5-3.8,8.7-3.8c0.1,0,0.5,0,0.5,0l31.9,0.3"/>
	<path fill="none" stroke="#231F20" stroke-width="1.167" stroke-linecap="round" stroke-dasharray="8.1693,2.2746" d="M743.1,440
		c3.5-8.3,8.6-21.8,13.1-38.6c7.1-26.8,13.6-67.2,4.5-107.8c-15.1-67.1-23.9-122.9-26.8-170.6c-0.5-8.6,0.9-15.1,4.1-18.5
		c2.5-2.7,5.7-2.9,6.6-2.9l0.5,0l31.6,0.3"/>
</g>
<g class="sole" id="sole" fill="#FFFFFF">	
	<g>
		<path stroke="#231F20" stroke-width="1.0524" stroke-miterlimit="10" d="M23.3,415.9c0,0-8.8,16.3-10.6,28.1
			S35,484.5,35,484.5s130.7,21.6,314,16.8l445-6.3c0,0,17.8-9.3,19-24.5c1.2-15.2-10.3-41.2-10.3-41.2l-481.2,1.2
			C321.5,430.5,158.7,434.9,23.3,415.9z"/>
		<path stroke="#231F20" stroke-width="0.9583" stroke-miterlimit="10" d="M15.3,424.3c0,0-5.4,13.4-5.6,17.4
			C9.3,451.6,35,487.5,35,487.5s130.7,17.9,314,13.9l445-5.2l22.4-25c1.2-12.6-5.9-28.5-5.9-28.5h-489
			C321.5,442.7,133.8,441.8,15.3,424.3z"/>
		<path stroke="#231F20" stroke-width="1.1419" stroke-miterlimit="10" d="M9.7,441.6c0,0-1.5,26.4,2.2,44.2
			c0,0,98.8,18.6,233.2,22.2h556c0,0,11.3-19.9,15-36.3h-106c0,0-6.7-0.3-12.1,5.2l-13.6,15.3H276.5l-31.4-0.3L222,470.8
			c0,0-7.6-5.7-18.9-6.5C144.3,460.1,48.9,452.6,9.7,441.6z"/>
		
			<pattern  id="SVGID_1_" xlink:href="#New_Pattern_Swatch_4" patternTransform="matrix(0.1609 -0.154 0.1609 0.154 -5345.25 -7256.7681)">
		</pattern>
		<path fill="url(#SVGID_1_)" stroke="#231F20" stroke-width="1.1419" d="M9.7,441.6c0,0-1.5,26.4,2.2,44.2
			c0,0,98.8,18.6,233.2,22.2h556c0,0,11.3-19.9,15-36.3h-106c0,0-6.7-0.3-12.1,5.2l-13.6,15.3H276.5l-31.4-0.3L222,470.8
			c0,0-7.6-5.7-18.9-6.5C144.3,460.1,48.9,452.6,9.7,441.6z"/>
	</g>
</g>
<g id="eyelets">
	<g>
		<linearGradient id="SVGID_2_" gradientUnits="userSpaceOnUse" x1="541.5673" y1="132.5" x2="567.1055" y2="132.5">
			<stop  offset="1.123600e-02" style="stop-color:#444B4C"/>
			<stop  offset="1.844441e-02" style="stop-color:#545A5C"/>
			<stop  offset="3.532334e-02" style="stop-color:#72797B"/>
			<stop  offset="5.443930e-02" style="stop-color:#8D9397"/>
			<stop  offset="7.604926e-02" style="stop-color:#A2A8AD"/>
			<stop  offset="0.1013" style="stop-color:#B3B8BE"/>
			<stop  offset="0.1325" style="stop-color:#BFC4C9"/>
			<stop  offset="0.1763" style="stop-color:#C5CAD0"/>
			<stop  offset="0.2978" style="stop-color:#C7CCD2"/>
			<stop  offset="0.4823" style="stop-color:#C5CAD1"/>
			<stop  offset="0.5488" style="stop-color:#BEC4CF"/>
			<stop  offset="0.5562" style="stop-color:#BDC3CE"/>
			<stop  offset="0.6572" style="stop-color:#ACB2BA"/>
			<stop  offset="0.8635" style="stop-color:#808785"/>
			<stop  offset="0.9944" style="stop-color:#626961"/>
		</linearGradient>
		<path fill="url(#SVGID_2_)" stroke="#231F20" stroke-width="1.0503" d="M567.1,132.5c0,7.1-5.7,12.8-12.8,12.8
			s-12.8-5.7-12.8-12.8c0-7.1,5.7-12.8,12.8-12.8S567.1,125.4,567.1,132.5z"/>
		<linearGradient id="SVGID_3_" gradientUnits="userSpaceOnUse" x1="543.056" y1="132.5" x2="565.6167" y2="132.5">
			<stop  offset="1.123600e-02" style="stop-color:#444B4C"/>
			<stop  offset="1.844441e-02" style="stop-color:#545A5C"/>
			<stop  offset="3.532334e-02" style="stop-color:#72797B"/>
			<stop  offset="5.443930e-02" style="stop-color:#8D9397"/>
			<stop  offset="7.604926e-02" style="stop-color:#A2A8AD"/>
			<stop  offset="0.1013" style="stop-color:#B3B8BE"/>
			<stop  offset="0.1325" style="stop-color:#BFC4C9"/>
			<stop  offset="0.1763" style="stop-color:#C5CAD0"/>
			<stop  offset="0.2978" style="stop-color:#C7CCD2"/>
			<stop  offset="0.4823" style="stop-color:#C5CAD1"/>
			<stop  offset="0.5488" style="stop-color:#BEC4CF"/>
			<stop  offset="0.5562" style="stop-color:#BDC3CE"/>
			<stop  offset="0.6572" style="stop-color:#ACB2BA"/>
			<stop  offset="0.8635" style="stop-color:#808785"/>
			<stop  offset="0.9944" style="stop-color:#626961"/>
		</linearGradient>
		<path fill="url(#SVGID_3_)" stroke="#231F20" stroke-width="1.0503" d="M554.3,143.8c-6.2,0-11.3-5.1-11.3-11.3
			c0-6.2,5.1-11.3,11.3-11.3c6.2,0,11.3,5.1,11.3,11.3C565.6,138.7,560.6,143.8,554.3,143.8L554.3,143.8z"/>
		<linearGradient id="SVGID_4_" gradientUnits="userSpaceOnUse" x1="546.4605" y1="132.5" x2="562.2063" y2="132.5">
			<stop  offset="1.123600e-02" style="stop-color:#444B4C"/>
			<stop  offset="1.844441e-02" style="stop-color:#545A5C"/>
			<stop  offset="3.532334e-02" style="stop-color:#72797B"/>
			<stop  offset="5.443930e-02" style="stop-color:#8D9397"/>
			<stop  offset="7.604926e-02" style="stop-color:#A2A8AD"/>
			<stop  offset="0.1013" style="stop-color:#B3B8BE"/>
			<stop  offset="0.1325" style="stop-color:#BFC4C9"/>
			<stop  offset="0.1763" style="stop-color:#C5CAD0"/>
			<stop  offset="0.2978" style="stop-color:#C7CCD2"/>
			<stop  offset="0.4823" style="stop-color:#C5CAD1"/>
			<stop  offset="0.5488" style="stop-color:#BEC4CF"/>
			<stop  offset="0.5562" style="stop-color:#BDC3CE"/>
			<stop  offset="0.6572" style="stop-color:#ACB2BA"/>
			<stop  offset="0.8635" style="stop-color:#808785"/>
			<stop  offset="0.9944" style="stop-color:#626961"/>
		</linearGradient>
		<path fill="url(#SVGID_4_)" stroke="#231F20" stroke-width="1.0503" d="M554.3,140.4c-4.3,0-7.9-3.5-7.9-7.9
			c0-4.3,3.5-7.9,7.9-7.9s7.9,3.5,7.9,7.9C562.2,136.8,558.7,140.4,554.3,140.4L554.3,140.4z"/>
		<path fill="#231F20" stroke="#231F20" stroke-width="1.0503" d="M560.7,132.5c0,3.5-2.9,6.4-6.4,6.4c-3.5,0-6.4-2.9-6.4-6.4
			c0-3.5,2.9-6.4,6.4-6.4C557.9,126.1,560.7,129,560.7,132.5z"/>
	</g>
	<g>
		<linearGradient id="SVGID_5_" gradientUnits="userSpaceOnUse" x1="501.9006" y1="218.8334" x2="527.4389" y2="218.8334">
			<stop  offset="1.123600e-02" style="stop-color:#444B4C"/>
			<stop  offset="1.844441e-02" style="stop-color:#545A5C"/>
			<stop  offset="3.532334e-02" style="stop-color:#72797B"/>
			<stop  offset="5.443930e-02" style="stop-color:#8D9397"/>
			<stop  offset="7.604926e-02" style="stop-color:#A2A8AD"/>
			<stop  offset="0.1013" style="stop-color:#B3B8BE"/>
			<stop  offset="0.1325" style="stop-color:#BFC4C9"/>
			<stop  offset="0.1763" style="stop-color:#C5CAD0"/>
			<stop  offset="0.2978" style="stop-color:#C7CCD2"/>
			<stop  offset="0.4823" style="stop-color:#C5CAD1"/>
			<stop  offset="0.5488" style="stop-color:#BEC4CF"/>
			<stop  offset="0.5562" style="stop-color:#BDC3CE"/>
			<stop  offset="0.6572" style="stop-color:#ACB2BA"/>
			<stop  offset="0.8635" style="stop-color:#808785"/>
			<stop  offset="0.9944" style="stop-color:#626961"/>
		</linearGradient>
		<path fill="url(#SVGID_5_)" stroke="#231F20" stroke-width="1.0503" d="M527.4,218.8c0,7.1-5.7,12.8-12.8,12.8
			c-7.1,0-12.8-5.7-12.8-12.8c0-7.1,5.7-12.8,12.8-12.8C521.7,206.1,527.4,211.8,527.4,218.8z"/>
		<linearGradient id="SVGID_6_" gradientUnits="userSpaceOnUse" x1="503.3894" y1="218.8333" x2="525.95" y2="218.8333">
			<stop  offset="1.123600e-02" style="stop-color:#444B4C"/>
			<stop  offset="1.844441e-02" style="stop-color:#545A5C"/>
			<stop  offset="3.532334e-02" style="stop-color:#72797B"/>
			<stop  offset="5.443930e-02" style="stop-color:#8D9397"/>
			<stop  offset="7.604926e-02" style="stop-color:#A2A8AD"/>
			<stop  offset="0.1013" style="stop-color:#B3B8BE"/>
			<stop  offset="0.1325" style="stop-color:#BFC4C9"/>
			<stop  offset="0.1763" style="stop-color:#C5CAD0"/>
			<stop  offset="0.2978" style="stop-color:#C7CCD2"/>
			<stop  offset="0.4823" style="stop-color:#C5CAD1"/>
			<stop  offset="0.5488" style="stop-color:#BEC4CF"/>
			<stop  offset="0.5562" style="stop-color:#BDC3CE"/>
			<stop  offset="0.6572" style="stop-color:#ACB2BA"/>
			<stop  offset="0.8635" style="stop-color:#808785"/>
			<stop  offset="0.9944" style="stop-color:#626961"/>
		</linearGradient>
		<path fill="url(#SVGID_6_)" stroke="#231F20" stroke-width="1.0503" d="M514.7,230.1c-6.2,0-11.3-5.1-11.3-11.3
			c0-6.2,5.1-11.3,11.3-11.3c6.2,0,11.3,5.1,11.3,11.3C526,225.1,520.9,230.1,514.7,230.1L514.7,230.1z"/>
		<linearGradient id="SVGID_7_" gradientUnits="userSpaceOnUse" x1="506.7938" y1="218.8333" x2="522.5396" y2="218.8333">
			<stop  offset="1.123600e-02" style="stop-color:#444B4C"/>
			<stop  offset="1.844441e-02" style="stop-color:#545A5C"/>
			<stop  offset="3.532334e-02" style="stop-color:#72797B"/>
			<stop  offset="5.443930e-02" style="stop-color:#8D9397"/>
			<stop  offset="7.604926e-02" style="stop-color:#A2A8AD"/>
			<stop  offset="0.1013" style="stop-color:#B3B8BE"/>
			<stop  offset="0.1325" style="stop-color:#BFC4C9"/>
			<stop  offset="0.1763" style="stop-color:#C5CAD0"/>
			<stop  offset="0.2978" style="stop-color:#C7CCD2"/>
			<stop  offset="0.4823" style="stop-color:#C5CAD1"/>
			<stop  offset="0.5488" style="stop-color:#BEC4CF"/>
			<stop  offset="0.5562" style="stop-color:#BDC3CE"/>
			<stop  offset="0.6572" style="stop-color:#ACB2BA"/>
			<stop  offset="0.8635" style="stop-color:#808785"/>
			<stop  offset="0.9944" style="stop-color:#626961"/>
		</linearGradient>
		<path fill="url(#SVGID_7_)" stroke="#231F20" stroke-width="1.0503" d="M514.7,226.7c-4.3,0-7.9-3.5-7.9-7.9
			c0-4.3,3.5-7.9,7.9-7.9c4.3,0,7.9,3.5,7.9,7.9C522.5,223.2,519,226.7,514.7,226.7L514.7,226.7z"/>
		<path fill="#231F20" stroke="#231F20" stroke-width="1.0503" d="M521.1,218.8c0,3.5-2.9,6.4-6.4,6.4c-3.5,0-6.4-2.9-6.4-6.4
			c0-3.5,2.9-6.4,6.4-6.4C518.2,212.4,521.1,215.3,521.1,218.8z"/>
	</g>
	<g>
		<linearGradient id="SVGID_8_" gradientUnits="userSpaceOnUse" x1="523.7339" y1="175" x2="549.2722" y2="175">
			<stop  offset="1.123600e-02" style="stop-color:#444B4C"/>
			<stop  offset="1.844441e-02" style="stop-color:#545A5C"/>
			<stop  offset="3.532334e-02" style="stop-color:#72797B"/>
			<stop  offset="5.443930e-02" style="stop-color:#8D9397"/>
			<stop  offset="7.604926e-02" style="stop-color:#A2A8AD"/>
			<stop  offset="0.1013" style="stop-color:#B3B8BE"/>
			<stop  offset="0.1325" style="stop-color:#BFC4C9"/>
			<stop  offset="0.1763" style="stop-color:#C5CAD0"/>
			<stop  offset="0.2978" style="stop-color:#C7CCD2"/>
			<stop  offset="0.4823" style="stop-color:#C5CAD1"/>
			<stop  offset="0.5488" style="stop-color:#BEC4CF"/>
			<stop  offset="0.5562" style="stop-color:#BDC3CE"/>
			<stop  offset="0.6572" style="stop-color:#ACB2BA"/>
			<stop  offset="0.8635" style="stop-color:#808785"/>
			<stop  offset="0.9944" style="stop-color:#626961"/>
		</linearGradient>
		<path fill="url(#SVGID_8_)" stroke="#231F20" stroke-width="1.0503" d="M549.3,175c0,7.1-5.7,12.8-12.8,12.8s-12.8-5.7-12.8-12.8
			c0-7.1,5.7-12.8,12.8-12.8S549.3,167.9,549.3,175z"/>
		<linearGradient id="SVGID_9_" gradientUnits="userSpaceOnUse" x1="525.2227" y1="175" x2="547.7834" y2="175">
			<stop  offset="1.123600e-02" style="stop-color:#444B4C"/>
			<stop  offset="1.844441e-02" style="stop-color:#545A5C"/>
			<stop  offset="3.532334e-02" style="stop-color:#72797B"/>
			<stop  offset="5.443930e-02" style="stop-color:#8D9397"/>
			<stop  offset="7.604926e-02" style="stop-color:#A2A8AD"/>
			<stop  offset="0.1013" style="stop-color:#B3B8BE"/>
			<stop  offset="0.1325" style="stop-color:#BFC4C9"/>
			<stop  offset="0.1763" style="stop-color:#C5CAD0"/>
			<stop  offset="0.2978" style="stop-color:#C7CCD2"/>
			<stop  offset="0.4823" style="stop-color:#C5CAD1"/>
			<stop  offset="0.5488" style="stop-color:#BEC4CF"/>
			<stop  offset="0.5562" style="stop-color:#BDC3CE"/>
			<stop  offset="0.6572" style="stop-color:#ACB2BA"/>
			<stop  offset="0.8635" style="stop-color:#808785"/>
			<stop  offset="0.9944" style="stop-color:#626961"/>
		</linearGradient>
		<path fill="url(#SVGID_9_)" stroke="#231F20" stroke-width="1.0503" d="M536.5,186.3c-6.2,0-11.3-5.1-11.3-11.3
			c0-6.2,5.1-11.3,11.3-11.3c6.2,0,11.3,5.1,11.3,11.3C547.8,181.2,542.7,186.3,536.5,186.3L536.5,186.3z"/>
		<linearGradient id="SVGID_10_" gradientUnits="userSpaceOnUse" x1="528.6272" y1="175" x2="544.3729" y2="175">
			<stop  offset="1.123600e-02" style="stop-color:#444B4C"/>
			<stop  offset="1.844441e-02" style="stop-color:#545A5C"/>
			<stop  offset="3.532334e-02" style="stop-color:#72797B"/>
			<stop  offset="5.443930e-02" style="stop-color:#8D9397"/>
			<stop  offset="7.604926e-02" style="stop-color:#A2A8AD"/>
			<stop  offset="0.1013" style="stop-color:#B3B8BE"/>
			<stop  offset="0.1325" style="stop-color:#BFC4C9"/>
			<stop  offset="0.1763" style="stop-color:#C5CAD0"/>
			<stop  offset="0.2978" style="stop-color:#C7CCD2"/>
			<stop  offset="0.4823" style="stop-color:#C5CAD1"/>
			<stop  offset="0.5488" style="stop-color:#BEC4CF"/>
			<stop  offset="0.5562" style="stop-color:#BDC3CE"/>
			<stop  offset="0.6572" style="stop-color:#ACB2BA"/>
			<stop  offset="0.8635" style="stop-color:#808785"/>
			<stop  offset="0.9944" style="stop-color:#626961"/>
		</linearGradient>
		<path fill="url(#SVGID_10_)" stroke="#231F20" stroke-width="1.0503" d="M536.5,182.9c-4.3,0-7.9-3.5-7.9-7.9
			c0-4.3,3.5-7.9,7.9-7.9s7.9,3.5,7.9,7.9C544.4,179.3,540.8,182.9,536.5,182.9L536.5,182.9z"/>
		<path fill="#231F20" stroke="#231F20" stroke-width="1.0503" d="M542.9,175c0,3.5-2.9,6.4-6.4,6.4c-3.5,0-6.4-2.9-6.4-6.4
			c0-3.5,2.9-6.4,6.4-6.4C540,168.6,542.9,171.5,542.9,175z"/>
	</g>
	<g>
		<linearGradient id="SVGID_11_" gradientUnits="userSpaceOnUse" x1="470.0673" y1="259.5001" x2="495.6056" y2="259.5001">
			<stop  offset="1.123600e-02" style="stop-color:#444B4C"/>
			<stop  offset="1.844441e-02" style="stop-color:#545A5C"/>
			<stop  offset="3.532334e-02" style="stop-color:#72797B"/>
			<stop  offset="5.443930e-02" style="stop-color:#8D9397"/>
			<stop  offset="7.604926e-02" style="stop-color:#A2A8AD"/>
			<stop  offset="0.1013" style="stop-color:#B3B8BE"/>
			<stop  offset="0.1325" style="stop-color:#BFC4C9"/>
			<stop  offset="0.1763" style="stop-color:#C5CAD0"/>
			<stop  offset="0.2978" style="stop-color:#C7CCD2"/>
			<stop  offset="0.4823" style="stop-color:#C5CAD1"/>
			<stop  offset="0.5488" style="stop-color:#BEC4CF"/>
			<stop  offset="0.5562" style="stop-color:#BDC3CE"/>
			<stop  offset="0.6572" style="stop-color:#ACB2BA"/>
			<stop  offset="0.8635" style="stop-color:#808785"/>
			<stop  offset="0.9944" style="stop-color:#626961"/>
		</linearGradient>
		<path fill="url(#SVGID_11_)" stroke="#231F20" stroke-width="1.0503" d="M495.6,259.5c0,7.1-5.7,12.8-12.8,12.8
			c-7.1,0-12.8-5.7-12.8-12.8c0-7.1,5.7-12.8,12.8-12.8C489.9,246.7,495.6,252.4,495.6,259.5z"/>
		<linearGradient id="SVGID_12_" gradientUnits="userSpaceOnUse" x1="471.5561" y1="259.5" x2="494.1167" y2="259.5">
			<stop  offset="1.123600e-02" style="stop-color:#444B4C"/>
			<stop  offset="1.844441e-02" style="stop-color:#545A5C"/>
			<stop  offset="3.532334e-02" style="stop-color:#72797B"/>
			<stop  offset="5.443930e-02" style="stop-color:#8D9397"/>
			<stop  offset="7.604926e-02" style="stop-color:#A2A8AD"/>
			<stop  offset="0.1013" style="stop-color:#B3B8BE"/>
			<stop  offset="0.1325" style="stop-color:#BFC4C9"/>
			<stop  offset="0.1763" style="stop-color:#C5CAD0"/>
			<stop  offset="0.2978" style="stop-color:#C7CCD2"/>
			<stop  offset="0.4823" style="stop-color:#C5CAD1"/>
			<stop  offset="0.5488" style="stop-color:#BEC4CF"/>
			<stop  offset="0.5562" style="stop-color:#BDC3CE"/>
			<stop  offset="0.6572" style="stop-color:#ACB2BA"/>
			<stop  offset="0.8635" style="stop-color:#808785"/>
			<stop  offset="0.9944" style="stop-color:#626961"/>
		</linearGradient>
		<path fill="url(#SVGID_12_)" stroke="#231F20" stroke-width="1.0503" d="M482.8,270.8c-6.2,0-11.3-5.1-11.3-11.3
			c0-6.2,5.1-11.3,11.3-11.3c6.2,0,11.3,5.1,11.3,11.3C494.1,265.7,489.1,270.8,482.8,270.8L482.8,270.8z"/>
		<linearGradient id="SVGID_13_" gradientUnits="userSpaceOnUse" x1="474.9605" y1="259.5" x2="490.7063" y2="259.5">
			<stop  offset="1.123600e-02" style="stop-color:#444B4C"/>
			<stop  offset="1.844441e-02" style="stop-color:#545A5C"/>
			<stop  offset="3.532334e-02" style="stop-color:#72797B"/>
			<stop  offset="5.443930e-02" style="stop-color:#8D9397"/>
			<stop  offset="7.604926e-02" style="stop-color:#A2A8AD"/>
			<stop  offset="0.1013" style="stop-color:#B3B8BE"/>
			<stop  offset="0.1325" style="stop-color:#BFC4C9"/>
			<stop  offset="0.1763" style="stop-color:#C5CAD0"/>
			<stop  offset="0.2978" style="stop-color:#C7CCD2"/>
			<stop  offset="0.4823" style="stop-color:#C5CAD1"/>
			<stop  offset="0.5488" style="stop-color:#BEC4CF"/>
			<stop  offset="0.5562" style="stop-color:#BDC3CE"/>
			<stop  offset="0.6572" style="stop-color:#ACB2BA"/>
			<stop  offset="0.8635" style="stop-color:#808785"/>
			<stop  offset="0.9944" style="stop-color:#626961"/>
		</linearGradient>
		<path fill="url(#SVGID_13_)" stroke="#231F20" stroke-width="1.0503" d="M482.8,267.4c-4.3,0-7.9-3.5-7.9-7.9
			c0-4.3,3.5-7.9,7.9-7.9s7.9,3.5,7.9,7.9C490.7,263.8,487.2,267.4,482.8,267.4L482.8,267.4z"/>
		<path fill="#231F20" stroke="#231F20" stroke-width="1.0503" d="M489.2,259.5c0,3.5-2.9,6.4-6.4,6.4c-3.5,0-6.4-2.9-6.4-6.4
			c0-3.5,2.9-6.4,6.4-6.4C486.4,253.1,489.2,256,489.2,259.5z"/>
	</g>
	<g>
		<linearGradient id="SVGID_14_" gradientUnits="userSpaceOnUse" x1="425.5673" y1="295.0001" x2="451.1056" y2="295.0001">
			<stop  offset="1.123600e-02" style="stop-color:#444B4C"/>
			<stop  offset="1.844441e-02" style="stop-color:#545A5C"/>
			<stop  offset="3.532334e-02" style="stop-color:#72797B"/>
			<stop  offset="5.443930e-02" style="stop-color:#8D9397"/>
			<stop  offset="7.604926e-02" style="stop-color:#A2A8AD"/>
			<stop  offset="0.1013" style="stop-color:#B3B8BE"/>
			<stop  offset="0.1325" style="stop-color:#BFC4C9"/>
			<stop  offset="0.1763" style="stop-color:#C5CAD0"/>
			<stop  offset="0.2978" style="stop-color:#C7CCD2"/>
			<stop  offset="0.4823" style="stop-color:#C5CAD1"/>
			<stop  offset="0.5488" style="stop-color:#BEC4CF"/>
			<stop  offset="0.5562" style="stop-color:#BDC3CE"/>
			<stop  offset="0.6572" style="stop-color:#ACB2BA"/>
			<stop  offset="0.8635" style="stop-color:#808785"/>
			<stop  offset="0.9944" style="stop-color:#626961"/>
		</linearGradient>
		<path fill="url(#SVGID_14_)" stroke="#231F20" stroke-width="1.0503" d="M451.1,295c0,7.1-5.7,12.8-12.8,12.8
			c-7.1,0-12.8-5.7-12.8-12.8c0-7.1,5.7-12.8,12.8-12.8C445.4,282.2,451.1,287.9,451.1,295z"/>
		<linearGradient id="SVGID_15_" gradientUnits="userSpaceOnUse" x1="427.0561" y1="295" x2="449.6167" y2="295">
			<stop  offset="1.123600e-02" style="stop-color:#444B4C"/>
			<stop  offset="1.844441e-02" style="stop-color:#545A5C"/>
			<stop  offset="3.532334e-02" style="stop-color:#72797B"/>
			<stop  offset="5.443930e-02" style="stop-color:#8D9397"/>
			<stop  offset="7.604926e-02" style="stop-color:#A2A8AD"/>
			<stop  offset="0.1013" style="stop-color:#B3B8BE"/>
			<stop  offset="0.1325" style="stop-color:#BFC4C9"/>
			<stop  offset="0.1763" style="stop-color:#C5CAD0"/>
			<stop  offset="0.2978" style="stop-color:#C7CCD2"/>
			<stop  offset="0.4823" style="stop-color:#C5CAD1"/>
			<stop  offset="0.5488" style="stop-color:#BEC4CF"/>
			<stop  offset="0.5562" style="stop-color:#BDC3CE"/>
			<stop  offset="0.6572" style="stop-color:#ACB2BA"/>
			<stop  offset="0.8635" style="stop-color:#808785"/>
			<stop  offset="0.9944" style="stop-color:#626961"/>
		</linearGradient>
		<path fill="url(#SVGID_15_)" stroke="#231F20" stroke-width="1.0503" d="M438.3,306.3c-6.2,0-11.3-5.1-11.3-11.3
			c0-6.2,5.1-11.3,11.3-11.3c6.2,0,11.3,5.1,11.3,11.3C449.6,301.2,444.6,306.3,438.3,306.3L438.3,306.3z"/>
		<linearGradient id="SVGID_16_" gradientUnits="userSpaceOnUse" x1="430.4605" y1="295" x2="446.2063" y2="295">
			<stop  offset="1.123600e-02" style="stop-color:#444B4C"/>
			<stop  offset="1.844441e-02" style="stop-color:#545A5C"/>
			<stop  offset="3.532334e-02" style="stop-color:#72797B"/>
			<stop  offset="5.443930e-02" style="stop-color:#8D9397"/>
			<stop  offset="7.604926e-02" style="stop-color:#A2A8AD"/>
			<stop  offset="0.1013" style="stop-color:#B3B8BE"/>
			<stop  offset="0.1325" style="stop-color:#BFC4C9"/>
			<stop  offset="0.1763" style="stop-color:#C5CAD0"/>
			<stop  offset="0.2978" style="stop-color:#C7CCD2"/>
			<stop  offset="0.4823" style="stop-color:#C5CAD1"/>
			<stop  offset="0.5488" style="stop-color:#BEC4CF"/>
			<stop  offset="0.5562" style="stop-color:#BDC3CE"/>
			<stop  offset="0.6572" style="stop-color:#ACB2BA"/>
			<stop  offset="0.8635" style="stop-color:#808785"/>
			<stop  offset="0.9944" style="stop-color:#626961"/>
		</linearGradient>
		<path fill="url(#SVGID_16_)" stroke="#231F20" stroke-width="1.0503" d="M438.3,302.9c-4.3,0-7.9-3.5-7.9-7.9
			c0-4.3,3.5-7.9,7.9-7.9s7.9,3.5,7.9,7.9C446.2,299.3,442.7,302.9,438.3,302.9L438.3,302.9z"/>
		<path fill="#231F20" stroke="#231F20" stroke-width="1.0503" d="M444.7,295c0,3.5-2.9,6.4-6.4,6.4c-3.5,0-6.4-2.9-6.4-6.4
			c0-3.5,2.9-6.4,6.4-6.4C441.9,288.6,444.7,291.5,444.7,295z"/>
	</g>
	<g>
		<linearGradient id="SVGID_17_" gradientUnits="userSpaceOnUse" x1="376.234" y1="323.6667" x2="401.7722" y2="323.6667">
			<stop  offset="1.123600e-02" style="stop-color:#444B4C"/>
			<stop  offset="1.844441e-02" style="stop-color:#545A5C"/>
			<stop  offset="3.532334e-02" style="stop-color:#72797B"/>
			<stop  offset="5.443930e-02" style="stop-color:#8D9397"/>
			<stop  offset="7.604926e-02" style="stop-color:#A2A8AD"/>
			<stop  offset="0.1013" style="stop-color:#B3B8BE"/>
			<stop  offset="0.1325" style="stop-color:#BFC4C9"/>
			<stop  offset="0.1763" style="stop-color:#C5CAD0"/>
			<stop  offset="0.2978" style="stop-color:#C7CCD2"/>
			<stop  offset="0.4823" style="stop-color:#C5CAD1"/>
			<stop  offset="0.5488" style="stop-color:#BEC4CF"/>
			<stop  offset="0.5562" style="stop-color:#BDC3CE"/>
			<stop  offset="0.6572" style="stop-color:#ACB2BA"/>
			<stop  offset="0.8635" style="stop-color:#808785"/>
			<stop  offset="0.9944" style="stop-color:#626961"/>
		</linearGradient>
		<path fill="url(#SVGID_17_)" stroke="#231F20" stroke-width="1.0503" d="M401.8,323.7c0,7.1-5.7,12.8-12.8,12.8
			s-12.8-5.7-12.8-12.8c0-7.1,5.7-12.8,12.8-12.8S401.8,316.6,401.8,323.7z"/>
		<linearGradient id="SVGID_18_" gradientUnits="userSpaceOnUse" x1="377.7227" y1="323.6667" x2="400.2834" y2="323.6667">
			<stop  offset="1.123600e-02" style="stop-color:#444B4C"/>
			<stop  offset="1.844441e-02" style="stop-color:#545A5C"/>
			<stop  offset="3.532334e-02" style="stop-color:#72797B"/>
			<stop  offset="5.443930e-02" style="stop-color:#8D9397"/>
			<stop  offset="7.604926e-02" style="stop-color:#A2A8AD"/>
			<stop  offset="0.1013" style="stop-color:#B3B8BE"/>
			<stop  offset="0.1325" style="stop-color:#BFC4C9"/>
			<stop  offset="0.1763" style="stop-color:#C5CAD0"/>
			<stop  offset="0.2978" style="stop-color:#C7CCD2"/>
			<stop  offset="0.4823" style="stop-color:#C5CAD1"/>
			<stop  offset="0.5488" style="stop-color:#BEC4CF"/>
			<stop  offset="0.5562" style="stop-color:#BDC3CE"/>
			<stop  offset="0.6572" style="stop-color:#ACB2BA"/>
			<stop  offset="0.8635" style="stop-color:#808785"/>
			<stop  offset="0.9944" style="stop-color:#626961"/>
		</linearGradient>
		<path fill="url(#SVGID_18_)" stroke="#231F20" stroke-width="1.0503" d="M389,334.9c-6.2,0-11.3-5.1-11.3-11.3
			c0-6.2,5.1-11.3,11.3-11.3c6.2,0,11.3,5.1,11.3,11.3C400.3,329.9,395.2,334.9,389,334.9L389,334.9z"/>
		<linearGradient id="SVGID_19_" gradientUnits="userSpaceOnUse" x1="381.1272" y1="323.6667" x2="396.8729" y2="323.6667">
			<stop  offset="1.123600e-02" style="stop-color:#444B4C"/>
			<stop  offset="1.844441e-02" style="stop-color:#545A5C"/>
			<stop  offset="3.532334e-02" style="stop-color:#72797B"/>
			<stop  offset="5.443930e-02" style="stop-color:#8D9397"/>
			<stop  offset="7.604926e-02" style="stop-color:#A2A8AD"/>
			<stop  offset="0.1013" style="stop-color:#B3B8BE"/>
			<stop  offset="0.1325" style="stop-color:#BFC4C9"/>
			<stop  offset="0.1763" style="stop-color:#C5CAD0"/>
			<stop  offset="0.2978" style="stop-color:#C7CCD2"/>
			<stop  offset="0.4823" style="stop-color:#C5CAD1"/>
			<stop  offset="0.5488" style="stop-color:#BEC4CF"/>
			<stop  offset="0.5562" style="stop-color:#BDC3CE"/>
			<stop  offset="0.6572" style="stop-color:#ACB2BA"/>
			<stop  offset="0.8635" style="stop-color:#808785"/>
			<stop  offset="0.9944" style="stop-color:#626961"/>
		</linearGradient>
		<path fill="url(#SVGID_19_)" stroke="#231F20" stroke-width="1.0503" d="M389,331.5c-4.3,0-7.9-3.5-7.9-7.9c0-4.3,3.5-7.9,7.9-7.9
			s7.9,3.5,7.9,7.9C396.9,328,393.3,331.5,389,331.5L389,331.5z"/>
		<path fill="#231F20" stroke="#231F20" stroke-width="1.0503" d="M395.4,323.7c0,3.5-2.9,6.4-6.4,6.4c-3.5,0-6.4-2.9-6.4-6.4
			c0-3.5,2.9-6.4,6.4-6.4C392.5,317.3,395.4,320.1,395.4,323.7z"/>
	</g>
	<g>
		<linearGradient id="SVGID_20_" gradientUnits="userSpaceOnUse" x1="324.5083" y1="345.5431" x2="350.0466" y2="345.5431">
			<stop  offset="1.123600e-02" style="stop-color:#444B4C"/>
			<stop  offset="1.844441e-02" style="stop-color:#545A5C"/>
			<stop  offset="3.532334e-02" style="stop-color:#72797B"/>
			<stop  offset="5.443930e-02" style="stop-color:#8D9397"/>
			<stop  offset="7.604926e-02" style="stop-color:#A2A8AD"/>
			<stop  offset="0.1013" style="stop-color:#B3B8BE"/>
			<stop  offset="0.1325" style="stop-color:#BFC4C9"/>
			<stop  offset="0.1763" style="stop-color:#C5CAD0"/>
			<stop  offset="0.2978" style="stop-color:#C7CCD2"/>
			<stop  offset="0.4823" style="stop-color:#C5CAD1"/>
			<stop  offset="0.5488" style="stop-color:#BEC4CF"/>
			<stop  offset="0.5562" style="stop-color:#BDC3CE"/>
			<stop  offset="0.6572" style="stop-color:#ACB2BA"/>
			<stop  offset="0.8635" style="stop-color:#808785"/>
			<stop  offset="0.9944" style="stop-color:#626961"/>
		</linearGradient>
		<path fill="url(#SVGID_20_)" stroke="#231F20" stroke-width="1.0503" d="M350,345.5c0,7.1-5.7,12.8-12.8,12.8
			c-7.1,0-12.8-5.7-12.8-12.8c0-7.1,5.7-12.8,12.8-12.8C344.3,332.8,350,338.5,350,345.5z"/>
		<linearGradient id="SVGID_21_" gradientUnits="userSpaceOnUse" x1="325.9971" y1="345.5431" x2="348.5577" y2="345.5431">
			<stop  offset="1.123600e-02" style="stop-color:#444B4C"/>
			<stop  offset="1.844441e-02" style="stop-color:#545A5C"/>
			<stop  offset="3.532334e-02" style="stop-color:#72797B"/>
			<stop  offset="5.443930e-02" style="stop-color:#8D9397"/>
			<stop  offset="7.604926e-02" style="stop-color:#A2A8AD"/>
			<stop  offset="0.1013" style="stop-color:#B3B8BE"/>
			<stop  offset="0.1325" style="stop-color:#BFC4C9"/>
			<stop  offset="0.1763" style="stop-color:#C5CAD0"/>
			<stop  offset="0.2978" style="stop-color:#C7CCD2"/>
			<stop  offset="0.4823" style="stop-color:#C5CAD1"/>
			<stop  offset="0.5488" style="stop-color:#BEC4CF"/>
			<stop  offset="0.5562" style="stop-color:#BDC3CE"/>
			<stop  offset="0.6572" style="stop-color:#ACB2BA"/>
			<stop  offset="0.8635" style="stop-color:#808785"/>
			<stop  offset="0.9944" style="stop-color:#626961"/>
		</linearGradient>
		<path fill="url(#SVGID_21_)" stroke="#231F20" stroke-width="1.0503" d="M337.3,356.8c-6.2,0-11.3-5.1-11.3-11.3
			c0-6.2,5.1-11.3,11.3-11.3c6.2,0,11.3,5.1,11.3,11.3C348.6,351.8,343.5,356.8,337.3,356.8L337.3,356.8z"/>
		<linearGradient id="SVGID_22_" gradientUnits="userSpaceOnUse" x1="329.4015" y1="345.5431" x2="345.1473" y2="345.5431">
			<stop  offset="1.123600e-02" style="stop-color:#444B4C"/>
			<stop  offset="1.844441e-02" style="stop-color:#545A5C"/>
			<stop  offset="3.532334e-02" style="stop-color:#72797B"/>
			<stop  offset="5.443930e-02" style="stop-color:#8D9397"/>
			<stop  offset="7.604926e-02" style="stop-color:#A2A8AD"/>
			<stop  offset="0.1013" style="stop-color:#B3B8BE"/>
			<stop  offset="0.1325" style="stop-color:#BFC4C9"/>
			<stop  offset="0.1763" style="stop-color:#C5CAD0"/>
			<stop  offset="0.2978" style="stop-color:#C7CCD2"/>
			<stop  offset="0.4823" style="stop-color:#C5CAD1"/>
			<stop  offset="0.5488" style="stop-color:#BEC4CF"/>
			<stop  offset="0.5562" style="stop-color:#BDC3CE"/>
			<stop  offset="0.6572" style="stop-color:#ACB2BA"/>
			<stop  offset="0.8635" style="stop-color:#808785"/>
			<stop  offset="0.9944" style="stop-color:#626961"/>
		</linearGradient>
		<path fill="url(#SVGID_22_)" stroke="#231F20" stroke-width="1.0503" d="M337.3,353.4c-4.3,0-7.9-3.5-7.9-7.9
			c0-4.3,3.5-7.9,7.9-7.9s7.9,3.5,7.9,7.9C345.1,349.9,341.6,353.4,337.3,353.4L337.3,353.4z"/>
		<path fill="#231F20" stroke="#231F20" stroke-width="1.0503" d="M343.7,345.5c0,3.5-2.9,6.4-6.4,6.4c-3.5,0-6.4-2.9-6.4-6.4
			c0-3.5,2.9-6.4,6.4-6.4C340.8,339.2,343.7,342,343.7,345.5z"/>
	</g>
	<g>
		<linearGradient id="SVGID_23_" gradientUnits="userSpaceOnUse" x1="272.6666" y1="362.369" x2="298.2049" y2="362.369">
			<stop  offset="1.123600e-02" style="stop-color:#444B4C"/>
			<stop  offset="1.844441e-02" style="stop-color:#545A5C"/>
			<stop  offset="3.532334e-02" style="stop-color:#72797B"/>
			<stop  offset="5.443930e-02" style="stop-color:#8D9397"/>
			<stop  offset="7.604926e-02" style="stop-color:#A2A8AD"/>
			<stop  offset="0.1013" style="stop-color:#B3B8BE"/>
			<stop  offset="0.1325" style="stop-color:#BFC4C9"/>
			<stop  offset="0.1763" style="stop-color:#C5CAD0"/>
			<stop  offset="0.2978" style="stop-color:#C7CCD2"/>
			<stop  offset="0.4823" style="stop-color:#C5CAD1"/>
			<stop  offset="0.5488" style="stop-color:#BEC4CF"/>
			<stop  offset="0.5562" style="stop-color:#BDC3CE"/>
			<stop  offset="0.6572" style="stop-color:#ACB2BA"/>
			<stop  offset="0.8635" style="stop-color:#808785"/>
			<stop  offset="0.9944" style="stop-color:#626961"/>
		</linearGradient>
		<path fill="url(#SVGID_23_)" stroke="#231F20" stroke-width="1.0503" d="M298.2,362.4c0,7.1-5.7,12.8-12.8,12.8
			c-7.1,0-12.8-5.7-12.8-12.8c0-7.1,5.7-12.8,12.8-12.8C292.5,349.6,298.2,355.3,298.2,362.4z"/>
		<linearGradient id="SVGID_24_" gradientUnits="userSpaceOnUse" x1="274.1554" y1="362.369" x2="296.716" y2="362.369">
			<stop  offset="1.123600e-02" style="stop-color:#444B4C"/>
			<stop  offset="1.844441e-02" style="stop-color:#545A5C"/>
			<stop  offset="3.532334e-02" style="stop-color:#72797B"/>
			<stop  offset="5.443930e-02" style="stop-color:#8D9397"/>
			<stop  offset="7.604926e-02" style="stop-color:#A2A8AD"/>
			<stop  offset="0.1013" style="stop-color:#B3B8BE"/>
			<stop  offset="0.1325" style="stop-color:#BFC4C9"/>
			<stop  offset="0.1763" style="stop-color:#C5CAD0"/>
			<stop  offset="0.2978" style="stop-color:#C7CCD2"/>
			<stop  offset="0.4823" style="stop-color:#C5CAD1"/>
			<stop  offset="0.5488" style="stop-color:#BEC4CF"/>
			<stop  offset="0.5562" style="stop-color:#BDC3CE"/>
			<stop  offset="0.6572" style="stop-color:#ACB2BA"/>
			<stop  offset="0.8635" style="stop-color:#808785"/>
			<stop  offset="0.9944" style="stop-color:#626961"/>
		</linearGradient>
		<path fill="url(#SVGID_24_)" stroke="#231F20" stroke-width="1.0503" d="M285.4,373.7c-6.2,0-11.3-5.1-11.3-11.3
			c0-6.2,5.1-11.3,11.3-11.3c6.2,0,11.3,5.1,11.3,11.3C296.7,368.6,291.7,373.7,285.4,373.7L285.4,373.7z"/>
		<linearGradient id="SVGID_25_" gradientUnits="userSpaceOnUse" x1="277.5598" y1="362.369" x2="293.3056" y2="362.369">
			<stop  offset="1.123600e-02" style="stop-color:#444B4C"/>
			<stop  offset="1.844441e-02" style="stop-color:#545A5C"/>
			<stop  offset="3.532334e-02" style="stop-color:#72797B"/>
			<stop  offset="5.443930e-02" style="stop-color:#8D9397"/>
			<stop  offset="7.604926e-02" style="stop-color:#A2A8AD"/>
			<stop  offset="0.1013" style="stop-color:#B3B8BE"/>
			<stop  offset="0.1325" style="stop-color:#BFC4C9"/>
			<stop  offset="0.1763" style="stop-color:#C5CAD0"/>
			<stop  offset="0.2978" style="stop-color:#C7CCD2"/>
			<stop  offset="0.4823" style="stop-color:#C5CAD1"/>
			<stop  offset="0.5488" style="stop-color:#BEC4CF"/>
			<stop  offset="0.5562" style="stop-color:#BDC3CE"/>
			<stop  offset="0.6572" style="stop-color:#ACB2BA"/>
			<stop  offset="0.8635" style="stop-color:#808785"/>
			<stop  offset="0.9944" style="stop-color:#626961"/>
		</linearGradient>
		<path fill="url(#SVGID_25_)" stroke="#231F20" stroke-width="1.0503" d="M285.4,370.2c-4.3,0-7.9-3.5-7.9-7.9
			c0-4.3,3.5-7.9,7.9-7.9s7.9,3.5,7.9,7.9C293.3,366.7,289.8,370.2,285.4,370.2L285.4,370.2z"/>
		<path fill="#231F20" stroke="#231F20" stroke-width="1.0503" d="M291.8,362.4c0,3.5-2.9,6.4-6.4,6.4c-3.5,0-6.4-2.9-6.4-6.4
			c0-3.5,2.9-6.4,6.4-6.4C289,356,291.8,358.8,291.8,362.4z"/>
	</g>
</g>
<g
	class="laces"
	id="top-laces"
	fill="#FFFFFF"
>
	<path 
		stroke="#231F20" stroke-width="1.167" stroke-miterlimit="10" 
		d="M763.9,517.4c0.1,2.5-1.7,4.7-4,5l-57.1,5.7 c-2.3,0.2-4.2-1.6-4.3-4.1l0,0c-0.1-2.5,1.7-4.7,4-5l57.1-5.7C762,513,763.9,514.8,763.9,517.4L763.9,517.4z"/>
	<path 
		stroke="#231F20" stroke-width="1.167" stroke-miterlimit="10" 
		d="M566.1,140.9c0,0-8.8-11.3-13.4-8
		c-4.6,3.3-3.5,8.7,3.5,21.4c6.6,11.9,33.9,60.9,13.9,148.5c-7.6,33.1-19.8,160.8,45.3,206.4c28.7,20.1,53.5,19.6,69.1,19.7l30,0.3
		c10.8-3.9,3.4-12.7-0.4-13c-15.3-1.5-71.7,0.3-87.6-12.6c-33.5-27.2-57.3-134.5-46.5-181.4C603.4,220.8,584.8,166.2,566.1,140.9z"
		/>
	<path stroke="#231F20" stroke-width="1.167" stroke-miterlimit="10" d="M279.2,367c0,0-6.2,2.6-24.1-17.8
		c0,0-2.6-4.4,0.7-4.9c3.3-0.5,8.5-3.4,8.9-5.8c0,0,2.4-4.5,6,0.2c0,0,2.2,4.2,15.8,15.1C286.4,353.8,296.8,369.1,279.2,367z"/>
	<path stroke="#231F20" stroke-width="1.167" stroke-miterlimit="10" d="M329.9,348.8c0,0-10.8-2.4-29.5-19.6
		c0,0-2.3-4.7,1.1-5.1c3.3-0.3,9.5-3.4,10-5.8c0,0,3.8-2.7,6.9,2.2c0,0,0.4,2.6,19.2,15.4C337.4,335.9,347.4,351.7,329.9,348.8z"/>
	<path stroke="#231F20" stroke-width="1.167" stroke-miterlimit="10" d="M379.6,326.3c0,0-15.3-5.1-29.3-21.2
		c0,0-2.1-4.6,1.3-4.5c3.4,0,8-1.9,8.7-4.2c0,0,2.5-3.4,5.6,0.2c0,0,5.7,6.8,22.9,17.8C388.8,314.3,396.7,331,379.6,326.3z"/>
	<path stroke="#231F20" stroke-width="1.167" stroke-miterlimit="10" d="M431.2,299.7c0,0-19.3-8.8-35.4-22.7
		c0,0-1.9-4.4,1.4-4.9s7.9-3.6,8.3-6c0,0,4.2-1.6,5.1,0c0,0,9.4,12.1,28,20.4C438.7,286.6,448.8,301.9,431.2,299.7z"/>
	<path stroke="#231F20" stroke-width="1.167" stroke-miterlimit="10" d="M472.5,264c0,0-20.8-6-37.9-18.3
		c-0.8-0.6-4.8-3.9-0.5-5.3c3.2-1,6.7-5.6,6.9-8c0,0,4.7-3.3,5.6-1.8c0,0,13.1,12.7,32.3,19.6C478.9,250.3,490.2,264.8,472.5,264z"
		/>
	<path stroke="#231F20" stroke-width="1.167" stroke-miterlimit="10" d="M506.8,224.4c0,0-26.7-5.5-45.4-15.2
		c-0.9-0.5-3.8-3,0.5-4.5c3.2-1.1,4.1-8,4-10.4c0,0,4.1-2.5,5.3-1.2c0,0,19.9,12.8,40,16.9C511.2,209.9,524.4,222.7,506.8,224.4z"/>
	<path stroke="#231F20" stroke-width="1.167" stroke-miterlimit="10" d="M529.5,182.3c0,0-27.1-3-46.6-10.9
		c-0.9-0.4-4-2.6,0.1-4.6c3.1-1.4,3.3-8.4,3-10.7c0,0,3.8-2.9,5.1-1.7c0,0,21.1,10.8,41.4,13.1C532.5,167.5,546.9,179,529.5,182.3z"
		/>
</g>
</svg>
