<?xml version="1.0" encoding="utf-8"?>
<!-- Generator: Adobe Illustrator 19.1.0, SVG Export Plug-In . SVG Version: 6.00 Build 0)  -->
<!DOCTYPE svg PUBLIC "-//W3C//DTD SVG 1.1//EN" "http://www.w3.org/Graphics/SVG/1.1/DTD/svg11.dtd">
<svg version="1.1" id="Layer_1" xmlns="http://www.w3.org/2000/svg" xmlns:xlink="http://www.w3.org/1999/xlink" x="0px" y="0px"
	 viewBox="0 0 841.9 595.3" style="enable-background:new 0 0 841.9 595.3;" xml:space="preserve">
<style type="text/css">
	.st0{fill:none;}
	.st1{fill:none;stroke:#D0D2D3;}
	.st2{fill:#FFFFFF;stroke:#231F20;stroke-miterlimit:10;}
	.st3{fill:none;stroke:#231F20;stroke-width:1.167;stroke-linecap:round;stroke-dasharray:8.1693,2.2746;}
	.st4{fill:#E5E5E5;stroke:#231F20;stroke-width:1.097;stroke-miterlimit:10;}
	.st5{fill:#3A3A3C;stroke:#231F20;stroke-width:1.1957;stroke-miterlimit:10;}
	.st6{fill:#FFFFFF;stroke:#231F20;stroke-width:1.1662;stroke-miterlimit:10;}
	.st7{fill:#FFFFFF;stroke:#231F20;stroke-width:1.1957;stroke-miterlimit:10;}
	.st8{fill:#FFFFFF;stroke:#231F20;stroke-width:1.167;stroke-linecap:round;stroke-dasharray:8.1693,2.2746;}
	.st9{fill:url(#SVGID_1_);stroke:#231F20;stroke-width:1.0496;}
	.st10{fill:url(#SVGID_2_);stroke:#231F20;stroke-width:1.0496;}
	.st11{fill:url(#SVGID_3_);stroke:#231F20;stroke-width:1.0496;}
	.st12{fill:#231F20;stroke:#231F20;stroke-width:1.0496;}
	.st13{fill:url(#SVGID_4_);stroke:#231F20;stroke-width:1.0496;}
	.st14{fill:url(#SVGID_5_);stroke:#231F20;stroke-width:1.0496;}
	.st15{fill:url(#SVGID_6_);stroke:#231F20;stroke-width:1.0496;}
	.st16{fill:url(#SVGID_7_);stroke:#231F20;stroke-width:1.0496;}
	.st17{fill:url(#SVGID_8_);stroke:#231F20;stroke-width:1.0496;}
	.st18{fill:url(#SVGID_9_);stroke:#231F20;stroke-width:1.0496;}
	.st19{fill:url(#SVGID_10_);stroke:#231F20;stroke-width:1.0496;}
	.st20{fill:url(#SVGID_11_);stroke:#231F20;stroke-width:1.0496;}
	.st21{fill:url(#SVGID_12_);stroke:#231F20;stroke-width:1.0496;}
	.st22{fill:url(#SVGID_13_);stroke:#231F20;stroke-width:1.0496;}
	.st23{fill:url(#SVGID_14_);stroke:#231F20;stroke-width:1.0496;}
	.st24{fill:url(#SVGID_15_);stroke:#231F20;stroke-width:1.0496;}
	.st25{fill:url(#SVGID_16_);stroke:#231F20;stroke-width:1.0496;}
	.st26{fill:url(#SVGID_17_);stroke:#231F20;stroke-width:1.0496;}
	.st27{fill:url(#SVGID_18_);stroke:#231F20;stroke-width:1.0496;}
	.st28{fill:#E5E5E5;stroke:#231F20;stroke-width:1.0477;stroke-miterlimit:10;}
	.st29{fill:#FFFFFF;stroke:#231F20;stroke-width:1.1419;stroke-miterlimit:10;}
	.st30{fill:#FFFFFF;stroke:#231F20;stroke-width:1.0524;stroke-miterlimit:10;}
	.st31{fill:#FFFFFF;stroke:#231F20;stroke-width:0.9583;stroke-miterlimit:10;}
	.st32{fill:url(#SVGID_19_);stroke:#231F20;stroke-width:1.1419;}
</style>
<pattern  width="15" height="15" patternUnits="userSpaceOnUse" id="New_Pattern_Swatch_4" viewBox="0 -15 15 15" style="overflow:visible;">
	<g>
		<polygon class="st0" points="15,0 0,0 0,-15 15,-15 		"/>
		<polygon class="st1" points="14.5,-0.5 0.5,-0.5 0.5,-14.5 14.5,-14.5 		"/>
	</g>
</pattern>
<path class="st2" d="M238,311c0,0,153-98,185-122s82-56,93-50c0,0,38,40,11,73L317,341L238,311z"/>
<path class="st3" d="M508.7,138.8c2.1,2.4,14.2,14.9,19.1,26.3c7.2,16.8,6,31.5-3.7,43.7"/>
<polygon class="st4" points="801.1,428 120.6,432.9 120.6,425.4 802.2,419.9 "/>
<path class="st5" d="M800.3,412.7c0.1,2.6-1.7,5-4,5.2l-57,6c-2.3,0.2-4.2-1.7-4.2-4.4l0,0c-0.1-2.6,1.7-5,4-5.2l57-6
	C798.3,408.1,800.2,410,800.3,412.7L800.3,412.7z"/>
<path class="st6" d="M263.9,338.7c0,0-13.9-17.2-17.6-41.9c0,0-1.5-4.2,1.8-4.6c3.6-0.4,9.9-3.1,11.3-5.1c0,0,4.4-0.1,4.5,1.6
	c0,0,5,25.5,12.6,40C276.5,328.8,279.3,346.3,263.9,338.7z"/>
<path class="st6" d="M313.1,314.6c0,0-15.6-15.7-21.8-39.9c0,0-2-4,1.4-4.7c3.5-0.8,9.5-4,10.7-6.2c0,0,4.4-0.5,4.7,1.2
	c0,0,7.6,24.9,16.6,38.5C324.6,303.4,329.1,320.6,313.1,314.6z"/>
<path class="st6" d="M354.4,287.6c0,0-15.6-15.7-21.8-39.9c0,0-2-4,1.4-4.7c3.5-0.8,9.5-4,10.7-6.2c0,0,4.4-0.5,4.7,1.2
	c0,0,7.6,24.9,16.6,38.5C365.9,276.4,370.5,293.6,354.4,287.6z"/>
<path class="st6" d="M395.8,260c0,0-15.6-15.7-21.8-39.9c0,0-2-4,1.4-4.7c3.5-0.8,9.5-4,10.7-6.2c0,0,4.4-0.5,4.7,1.2
	c0,0,7.6,24.9,16.6,38.5C407.3,248.9,411.8,266,395.8,260z"/>
<path class="st6" d="M436,231.9c0,0-15.6-15.7-21.8-39.9c0,0-2-4,1.4-4.7c3.5-0.8,9.5-4,10.7-6.2c0,0,4.4-0.5,4.7,1.2
	c0,0,7.6,24.9,16.6,38.5C447.5,220.8,452,237.9,436,231.9z"/>
<path class="st6" d="M25.1,394.6c1.2-8.6-3.3-11.7,0.9-20.7c7.8-16.7,15.6-18.8,27.4-20.7c110.4-17.9,182.5-40.1,229.6-57
	c0,0,29.2,30.4,32.6,28.7c2.1-1.3-80.1,90.7-80.1,90.7L25.1,394.6z"/>
<polygon class="st7" points="801.1,428 120.6,432.9 120.6,425.4 802.2,419.9 "/>
<path class="st2" d="M477,181.3L254,297.2c-21.3,8.3-25.2,33-25.2,33L217,404.5l36.4,22.7L687.3,442l106.5-44.3
	c0,0,37.9-70.5,11.4-145.8C789,206,790,204,790,204c-4.2-9.9-7.4-5.5-12.7-2.8c-126.3,63.5-165.7,85.2-251.6-11.9
	C505,166,477,181.3,477,181.3z"/>
<path class="st3" d="M259,423.2l4-14c0.3-0.9-41-8.6-41-8.6l11-66.9c0,0,3.9-24.8,20.4-32.6c0,0,225.5-116,225.5-116
	c0.1,0,8.3-4.4,18.6-4.4c9.7,0,18.1,3.9,24.9,11.5c42.5,48,74.6,67.6,110.6,67.6c37.2,0,78.5-20.8,141.1-52.2l5.1-2.5
	c1-0.5,2-1.1,2.8-1.6c0.7-0.4,1.6-1,2.2-1.2c0.3,0.4,0.9,1.2,1.7,3.1c0.6,4.4,3.8,15.6,15.3,48c23.6,67.1-5.6,131.2-10.4,141.1
	l-104.2,43.4L259,423.2z"/>
<path class="st8" d="M733,384c24.5-33.3,26-92.1,21.5-114.1c-4.4-22-28.9-8.3-28.9-8.3c-36.2,17-67.9,27-94.4,27
	c-31.8,0-77.7-25.3-111-58.6c-3.9-3.9-9.3-9.8-18.8-4.6c0,0-21.2,12.7-36.2-4.6c-0.6-0.7-14.5-17.9-14.5-17.9s-191.9,98.3-196,100.7
	c-15.2,9.1-18.7,33.5-18.7,33.5l-9.1,63.5"/>
<g>
	<linearGradient id="SVGID_1_" gradientUnits="userSpaceOnUse" x1="429.9677" y1="230.9491" x2="455.4884" y2="230.9491">
		<stop  offset="1.123600e-02" style="stop-color:#444B4C"/>
		<stop  offset="1.844441e-02" style="stop-color:#545A5C"/>
		<stop  offset="3.532334e-02" style="stop-color:#72797B"/>
		<stop  offset="5.443930e-02" style="stop-color:#8D9397"/>
		<stop  offset="7.604926e-02" style="stop-color:#A2A8AD"/>
		<stop  offset="0.1013" style="stop-color:#B3B8BE"/>
		<stop  offset="0.1325" style="stop-color:#BFC4C9"/>
		<stop  offset="0.1763" style="stop-color:#C5CAD0"/>
		<stop  offset="0.2978" style="stop-color:#C7CCD2"/>
		<stop  offset="0.4823" style="stop-color:#C5CAD1"/>
		<stop  offset="0.5488" style="stop-color:#BEC4CF"/>
		<stop  offset="0.5562" style="stop-color:#BDC3CE"/>
		<stop  offset="0.6572" style="stop-color:#ACB2BA"/>
		<stop  offset="0.8635" style="stop-color:#808785"/>
		<stop  offset="0.9944" style="stop-color:#626961"/>
	</linearGradient>
	<path class="st9" d="M455.5,230.9c0,7.1-5.7,12.8-12.8,12.8S430,238,430,230.9c0-7,5.7-12.8,12.8-12.8S455.5,223.9,455.5,230.9z"/>
	<linearGradient id="SVGID_2_" gradientUnits="userSpaceOnUse" x1="431.4554" y1="230.9491" x2="454.0006" y2="230.9491">
		<stop  offset="1.123600e-02" style="stop-color:#444B4C"/>
		<stop  offset="1.844441e-02" style="stop-color:#545A5C"/>
		<stop  offset="3.532334e-02" style="stop-color:#72797B"/>
		<stop  offset="5.443930e-02" style="stop-color:#8D9397"/>
		<stop  offset="7.604926e-02" style="stop-color:#A2A8AD"/>
		<stop  offset="0.1013" style="stop-color:#B3B8BE"/>
		<stop  offset="0.1325" style="stop-color:#BFC4C9"/>
		<stop  offset="0.1763" style="stop-color:#C5CAD0"/>
		<stop  offset="0.2978" style="stop-color:#C7CCD2"/>
		<stop  offset="0.4823" style="stop-color:#C5CAD1"/>
		<stop  offset="0.5488" style="stop-color:#BEC4CF"/>
		<stop  offset="0.5562" style="stop-color:#BDC3CE"/>
		<stop  offset="0.6572" style="stop-color:#ACB2BA"/>
		<stop  offset="0.8635" style="stop-color:#808785"/>
		<stop  offset="0.9944" style="stop-color:#626961"/>
	</linearGradient>
	<path class="st10" d="M442.7,242.2c-6.2,0-11.3-5.1-11.3-11.3c0-6.2,5.1-11.3,11.3-11.3c6.2,0,11.3,5.1,11.3,11.3
		C454,237.2,448.9,242.2,442.7,242.2L442.7,242.2z"/>
	<linearGradient id="SVGID_3_" gradientUnits="userSpaceOnUse" x1="434.8575" y1="230.9491" x2="450.5925" y2="230.9491">
		<stop  offset="1.123600e-02" style="stop-color:#444B4C"/>
		<stop  offset="1.844441e-02" style="stop-color:#545A5C"/>
		<stop  offset="3.532334e-02" style="stop-color:#72797B"/>
		<stop  offset="5.443930e-02" style="stop-color:#8D9397"/>
		<stop  offset="7.604926e-02" style="stop-color:#A2A8AD"/>
		<stop  offset="0.1013" style="stop-color:#B3B8BE"/>
		<stop  offset="0.1325" style="stop-color:#BFC4C9"/>
		<stop  offset="0.1763" style="stop-color:#C5CAD0"/>
		<stop  offset="0.2978" style="stop-color:#C7CCD2"/>
		<stop  offset="0.4823" style="stop-color:#C5CAD1"/>
		<stop  offset="0.5488" style="stop-color:#BEC4CF"/>
		<stop  offset="0.5562" style="stop-color:#BDC3CE"/>
		<stop  offset="0.6572" style="stop-color:#ACB2BA"/>
		<stop  offset="0.8635" style="stop-color:#808785"/>
		<stop  offset="0.9944" style="stop-color:#626961"/>
	</linearGradient>
	<path class="st11" d="M442.7,238.8c-4.3,0-7.9-3.5-7.9-7.9c0-4.3,3.5-7.9,7.9-7.9c4.3,0,7.9,3.5,7.9,7.9
		C450.6,235.3,447.1,238.8,442.7,238.8L442.7,238.8z"/>
	<path class="st12" d="M449.1,230.9c0,3.5-2.9,6.4-6.4,6.4c-3.5,0-6.4-2.9-6.4-6.4c0-3.5,2.9-6.4,6.4-6.4
		C446.3,224.6,449.1,227.4,449.1,230.9z"/>
</g>
<g>
	<linearGradient id="SVGID_4_" gradientUnits="userSpaceOnUse" x1="473.968" y1="207.5097" x2="499.4888" y2="207.5097">
		<stop  offset="1.123600e-02" style="stop-color:#444B4C"/>
		<stop  offset="1.844441e-02" style="stop-color:#545A5C"/>
		<stop  offset="3.532334e-02" style="stop-color:#72797B"/>
		<stop  offset="5.443930e-02" style="stop-color:#8D9397"/>
		<stop  offset="7.604926e-02" style="stop-color:#A2A8AD"/>
		<stop  offset="0.1013" style="stop-color:#B3B8BE"/>
		<stop  offset="0.1325" style="stop-color:#BFC4C9"/>
		<stop  offset="0.1763" style="stop-color:#C5CAD0"/>
		<stop  offset="0.2978" style="stop-color:#C7CCD2"/>
		<stop  offset="0.4823" style="stop-color:#C5CAD1"/>
		<stop  offset="0.5488" style="stop-color:#BEC4CF"/>
		<stop  offset="0.5562" style="stop-color:#BDC3CE"/>
		<stop  offset="0.6572" style="stop-color:#ACB2BA"/>
		<stop  offset="0.8635" style="stop-color:#808785"/>
		<stop  offset="0.9944" style="stop-color:#626961"/>
	</linearGradient>
	<path class="st13" d="M499.5,207.5c0,7.1-5.7,12.8-12.8,12.8c-7,0-12.8-5.7-12.8-12.8c0-7,5.7-12.8,12.8-12.8
		C493.8,194.7,499.5,200.5,499.5,207.5z"/>
	<linearGradient id="SVGID_5_" gradientUnits="userSpaceOnUse" x1="475.4557" y1="207.5097" x2="498.0009" y2="207.5097">
		<stop  offset="1.123600e-02" style="stop-color:#444B4C"/>
		<stop  offset="1.844441e-02" style="stop-color:#545A5C"/>
		<stop  offset="3.532334e-02" style="stop-color:#72797B"/>
		<stop  offset="5.443930e-02" style="stop-color:#8D9397"/>
		<stop  offset="7.604926e-02" style="stop-color:#A2A8AD"/>
		<stop  offset="0.1013" style="stop-color:#B3B8BE"/>
		<stop  offset="0.1325" style="stop-color:#BFC4C9"/>
		<stop  offset="0.1763" style="stop-color:#C5CAD0"/>
		<stop  offset="0.2978" style="stop-color:#C7CCD2"/>
		<stop  offset="0.4823" style="stop-color:#C5CAD1"/>
		<stop  offset="0.5488" style="stop-color:#BEC4CF"/>
		<stop  offset="0.5562" style="stop-color:#BDC3CE"/>
		<stop  offset="0.6572" style="stop-color:#ACB2BA"/>
		<stop  offset="0.8635" style="stop-color:#808785"/>
		<stop  offset="0.9944" style="stop-color:#626961"/>
	</linearGradient>
	<path class="st14" d="M486.7,218.8c-6.2,0-11.3-5.1-11.3-11.3c0-6.2,5.1-11.3,11.3-11.3c6.2,0,11.3,5.1,11.3,11.3
		C498,213.7,492.9,218.8,486.7,218.8L486.7,218.8z"/>
	<linearGradient id="SVGID_6_" gradientUnits="userSpaceOnUse" x1="478.8579" y1="207.5097" x2="494.5928" y2="207.5097">
		<stop  offset="1.123600e-02" style="stop-color:#444B4C"/>
		<stop  offset="1.844441e-02" style="stop-color:#545A5C"/>
		<stop  offset="3.532334e-02" style="stop-color:#72797B"/>
		<stop  offset="5.443930e-02" style="stop-color:#8D9397"/>
		<stop  offset="7.604926e-02" style="stop-color:#A2A8AD"/>
		<stop  offset="0.1013" style="stop-color:#B3B8BE"/>
		<stop  offset="0.1325" style="stop-color:#BFC4C9"/>
		<stop  offset="0.1763" style="stop-color:#C5CAD0"/>
		<stop  offset="0.2978" style="stop-color:#C7CCD2"/>
		<stop  offset="0.4823" style="stop-color:#C5CAD1"/>
		<stop  offset="0.5488" style="stop-color:#BEC4CF"/>
		<stop  offset="0.5562" style="stop-color:#BDC3CE"/>
		<stop  offset="0.6572" style="stop-color:#ACB2BA"/>
		<stop  offset="0.8635" style="stop-color:#808785"/>
		<stop  offset="0.9944" style="stop-color:#626961"/>
	</linearGradient>
	<path class="st15" d="M486.7,215.4c-4.3,0-7.9-3.5-7.9-7.9c0-4.3,3.5-7.9,7.9-7.9c4.3,0,7.9,3.5,7.9,7.9
		C494.6,211.8,491.1,215.4,486.7,215.4L486.7,215.4z"/>
	<path class="st12" d="M493.1,207.5c0,3.5-2.9,6.4-6.4,6.4c-3.5,0-6.4-2.9-6.4-6.4c0-3.5,2.9-6.4,6.4-6.4
		C490.3,201.1,493.1,204,493.1,207.5z"/>
</g>
<g>
	<linearGradient id="SVGID_7_" gradientUnits="userSpaceOnUse" x1="385.8862" y1="252.7978" x2="411.4069" y2="252.7978">
		<stop  offset="1.123600e-02" style="stop-color:#444B4C"/>
		<stop  offset="1.844441e-02" style="stop-color:#545A5C"/>
		<stop  offset="3.532334e-02" style="stop-color:#72797B"/>
		<stop  offset="5.443930e-02" style="stop-color:#8D9397"/>
		<stop  offset="7.604926e-02" style="stop-color:#A2A8AD"/>
		<stop  offset="0.1013" style="stop-color:#B3B8BE"/>
		<stop  offset="0.1325" style="stop-color:#BFC4C9"/>
		<stop  offset="0.1763" style="stop-color:#C5CAD0"/>
		<stop  offset="0.2978" style="stop-color:#C7CCD2"/>
		<stop  offset="0.4823" style="stop-color:#C5CAD1"/>
		<stop  offset="0.5488" style="stop-color:#BEC4CF"/>
		<stop  offset="0.5562" style="stop-color:#BDC3CE"/>
		<stop  offset="0.6572" style="stop-color:#ACB2BA"/>
		<stop  offset="0.8635" style="stop-color:#808785"/>
		<stop  offset="0.9944" style="stop-color:#626961"/>
	</linearGradient>
	<path class="st16" d="M411.4,252.8c0,7.1-5.7,12.8-12.8,12.8s-12.8-5.7-12.8-12.8c0-7,5.7-12.8,12.8-12.8S411.4,245.7,411.4,252.8z
		"/>
	<linearGradient id="SVGID_8_" gradientUnits="userSpaceOnUse" x1="387.3739" y1="252.7978" x2="409.9191" y2="252.7978">
		<stop  offset="1.123600e-02" style="stop-color:#444B4C"/>
		<stop  offset="1.844441e-02" style="stop-color:#545A5C"/>
		<stop  offset="3.532334e-02" style="stop-color:#72797B"/>
		<stop  offset="5.443930e-02" style="stop-color:#8D9397"/>
		<stop  offset="7.604926e-02" style="stop-color:#A2A8AD"/>
		<stop  offset="0.1013" style="stop-color:#B3B8BE"/>
		<stop  offset="0.1325" style="stop-color:#BFC4C9"/>
		<stop  offset="0.1763" style="stop-color:#C5CAD0"/>
		<stop  offset="0.2978" style="stop-color:#C7CCD2"/>
		<stop  offset="0.4823" style="stop-color:#C5CAD1"/>
		<stop  offset="0.5488" style="stop-color:#BEC4CF"/>
		<stop  offset="0.5562" style="stop-color:#BDC3CE"/>
		<stop  offset="0.6572" style="stop-color:#ACB2BA"/>
		<stop  offset="0.8635" style="stop-color:#808785"/>
		<stop  offset="0.9944" style="stop-color:#626961"/>
	</linearGradient>
	<path class="st17" d="M398.6,264.1c-6.2,0-11.3-5.1-11.3-11.3c0-6.2,5.1-11.3,11.3-11.3c6.2,0,11.3,5.1,11.3,11.3
		C409.9,259,404.9,264.1,398.6,264.1L398.6,264.1z"/>
	<linearGradient id="SVGID_9_" gradientUnits="userSpaceOnUse" x1="390.776" y1="252.7978" x2="406.511" y2="252.7978">
		<stop  offset="1.123600e-02" style="stop-color:#444B4C"/>
		<stop  offset="1.844441e-02" style="stop-color:#545A5C"/>
		<stop  offset="3.532334e-02" style="stop-color:#72797B"/>
		<stop  offset="5.443930e-02" style="stop-color:#8D9397"/>
		<stop  offset="7.604926e-02" style="stop-color:#A2A8AD"/>
		<stop  offset="0.1013" style="stop-color:#B3B8BE"/>
		<stop  offset="0.1325" style="stop-color:#BFC4C9"/>
		<stop  offset="0.1763" style="stop-color:#C5CAD0"/>
		<stop  offset="0.2978" style="stop-color:#C7CCD2"/>
		<stop  offset="0.4823" style="stop-color:#C5CAD1"/>
		<stop  offset="0.5488" style="stop-color:#BEC4CF"/>
		<stop  offset="0.5562" style="stop-color:#BDC3CE"/>
		<stop  offset="0.6572" style="stop-color:#ACB2BA"/>
		<stop  offset="0.8635" style="stop-color:#808785"/>
		<stop  offset="0.9944" style="stop-color:#626961"/>
	</linearGradient>
	<path class="st18" d="M398.6,260.7c-4.3,0-7.9-3.5-7.9-7.9c0-4.3,3.5-7.9,7.9-7.9c4.3,0,7.9,3.5,7.9,7.9
		C406.5,257.1,403,260.7,398.6,260.7L398.6,260.7z"/>
	<path class="st12" d="M405,252.8c0,3.5-2.9,6.4-6.4,6.4c-3.5,0-6.4-2.9-6.4-6.4c0-3.5,2.9-6.4,6.4-6.4
		C402.2,246.4,405,249.3,405,252.8z"/>
</g>
<g>
	<linearGradient id="SVGID_10_" gradientUnits="userSpaceOnUse" x1="342.27" y1="276.2643" x2="367.7908" y2="276.2643">
		<stop  offset="1.123600e-02" style="stop-color:#444B4C"/>
		<stop  offset="1.844441e-02" style="stop-color:#545A5C"/>
		<stop  offset="3.532334e-02" style="stop-color:#72797B"/>
		<stop  offset="5.443930e-02" style="stop-color:#8D9397"/>
		<stop  offset="7.604926e-02" style="stop-color:#A2A8AD"/>
		<stop  offset="0.1013" style="stop-color:#B3B8BE"/>
		<stop  offset="0.1325" style="stop-color:#BFC4C9"/>
		<stop  offset="0.1763" style="stop-color:#C5CAD0"/>
		<stop  offset="0.2978" style="stop-color:#C7CCD2"/>
		<stop  offset="0.4823" style="stop-color:#C5CAD1"/>
		<stop  offset="0.5488" style="stop-color:#BEC4CF"/>
		<stop  offset="0.5562" style="stop-color:#BDC3CE"/>
		<stop  offset="0.6572" style="stop-color:#ACB2BA"/>
		<stop  offset="0.8635" style="stop-color:#808785"/>
		<stop  offset="0.9944" style="stop-color:#626961"/>
	</linearGradient>
	<path class="st19" d="M367.8,276.3c0,7.1-5.7,12.8-12.8,12.8s-12.8-5.7-12.8-12.8c0-7,5.7-12.8,12.8-12.8S367.8,269.2,367.8,276.3z
		"/>
	<linearGradient id="SVGID_11_" gradientUnits="userSpaceOnUse" x1="343.7578" y1="276.2643" x2="366.3029" y2="276.2643">
		<stop  offset="1.123600e-02" style="stop-color:#444B4C"/>
		<stop  offset="1.844441e-02" style="stop-color:#545A5C"/>
		<stop  offset="3.532334e-02" style="stop-color:#72797B"/>
		<stop  offset="5.443930e-02" style="stop-color:#8D9397"/>
		<stop  offset="7.604926e-02" style="stop-color:#A2A8AD"/>
		<stop  offset="0.1013" style="stop-color:#B3B8BE"/>
		<stop  offset="0.1325" style="stop-color:#BFC4C9"/>
		<stop  offset="0.1763" style="stop-color:#C5CAD0"/>
		<stop  offset="0.2978" style="stop-color:#C7CCD2"/>
		<stop  offset="0.4823" style="stop-color:#C5CAD1"/>
		<stop  offset="0.5488" style="stop-color:#BEC4CF"/>
		<stop  offset="0.5562" style="stop-color:#BDC3CE"/>
		<stop  offset="0.6572" style="stop-color:#ACB2BA"/>
		<stop  offset="0.8635" style="stop-color:#808785"/>
		<stop  offset="0.9944" style="stop-color:#626961"/>
	</linearGradient>
	<path class="st20" d="M355,287.5c-6.2,0-11.3-5.1-11.3-11.3c0-6.2,5.1-11.3,11.3-11.3c6.2,0,11.3,5.1,11.3,11.3
		C366.3,282.5,361.2,287.5,355,287.5L355,287.5z"/>
	<linearGradient id="SVGID_12_" gradientUnits="userSpaceOnUse" x1="347.1599" y1="276.2643" x2="362.8948" y2="276.2643">
		<stop  offset="1.123600e-02" style="stop-color:#444B4C"/>
		<stop  offset="1.844441e-02" style="stop-color:#545A5C"/>
		<stop  offset="3.532334e-02" style="stop-color:#72797B"/>
		<stop  offset="5.443930e-02" style="stop-color:#8D9397"/>
		<stop  offset="7.604926e-02" style="stop-color:#A2A8AD"/>
		<stop  offset="0.1013" style="stop-color:#B3B8BE"/>
		<stop  offset="0.1325" style="stop-color:#BFC4C9"/>
		<stop  offset="0.1763" style="stop-color:#C5CAD0"/>
		<stop  offset="0.2978" style="stop-color:#C7CCD2"/>
		<stop  offset="0.4823" style="stop-color:#C5CAD1"/>
		<stop  offset="0.5488" style="stop-color:#BEC4CF"/>
		<stop  offset="0.5562" style="stop-color:#BDC3CE"/>
		<stop  offset="0.6572" style="stop-color:#ACB2BA"/>
		<stop  offset="0.8635" style="stop-color:#808785"/>
		<stop  offset="0.9944" style="stop-color:#626961"/>
	</linearGradient>
	<path class="st21" d="M355,284.1c-4.3,0-7.9-3.5-7.9-7.9c0-4.3,3.5-7.9,7.9-7.9c4.3,0,7.9,3.5,7.9,7.9
		C362.9,280.6,359.4,284.1,355,284.1L355,284.1z"/>
	<path class="st12" d="M361.4,276.3c0,3.5-2.9,6.4-6.4,6.4c-3.5,0-6.4-2.9-6.4-6.4c0-3.5,2.9-6.4,6.4-6.4
		C358.6,269.9,361.4,272.7,361.4,276.3z"/>
</g>
<g>
	<linearGradient id="SVGID_13_" gradientUnits="userSpaceOnUse" x1="295.8565" y1="298.8813" x2="321.3772" y2="298.8813">
		<stop  offset="1.123600e-02" style="stop-color:#444B4C"/>
		<stop  offset="1.844441e-02" style="stop-color:#545A5C"/>
		<stop  offset="3.532334e-02" style="stop-color:#72797B"/>
		<stop  offset="5.443930e-02" style="stop-color:#8D9397"/>
		<stop  offset="7.604926e-02" style="stop-color:#A2A8AD"/>
		<stop  offset="0.1013" style="stop-color:#B3B8BE"/>
		<stop  offset="0.1325" style="stop-color:#BFC4C9"/>
		<stop  offset="0.1763" style="stop-color:#C5CAD0"/>
		<stop  offset="0.2978" style="stop-color:#C7CCD2"/>
		<stop  offset="0.4823" style="stop-color:#C5CAD1"/>
		<stop  offset="0.5488" style="stop-color:#BEC4CF"/>
		<stop  offset="0.5562" style="stop-color:#BDC3CE"/>
		<stop  offset="0.6572" style="stop-color:#ACB2BA"/>
		<stop  offset="0.8635" style="stop-color:#808785"/>
		<stop  offset="0.9944" style="stop-color:#626961"/>
	</linearGradient>
	<path class="st22" d="M321.4,298.9c0,7.1-5.7,12.8-12.8,12.8s-12.8-5.7-12.8-12.8c0-7,5.7-12.8,12.8-12.8S321.4,291.8,321.4,298.9z
		"/>
	<linearGradient id="SVGID_14_" gradientUnits="userSpaceOnUse" x1="297.3442" y1="298.8813" x2="319.8894" y2="298.8813">
		<stop  offset="1.123600e-02" style="stop-color:#444B4C"/>
		<stop  offset="1.844441e-02" style="stop-color:#545A5C"/>
		<stop  offset="3.532334e-02" style="stop-color:#72797B"/>
		<stop  offset="5.443930e-02" style="stop-color:#8D9397"/>
		<stop  offset="7.604926e-02" style="stop-color:#A2A8AD"/>
		<stop  offset="0.1013" style="stop-color:#B3B8BE"/>
		<stop  offset="0.1325" style="stop-color:#BFC4C9"/>
		<stop  offset="0.1763" style="stop-color:#C5CAD0"/>
		<stop  offset="0.2978" style="stop-color:#C7CCD2"/>
		<stop  offset="0.4823" style="stop-color:#C5CAD1"/>
		<stop  offset="0.5488" style="stop-color:#BEC4CF"/>
		<stop  offset="0.5562" style="stop-color:#BDC3CE"/>
		<stop  offset="0.6572" style="stop-color:#ACB2BA"/>
		<stop  offset="0.8635" style="stop-color:#808785"/>
		<stop  offset="0.9944" style="stop-color:#626961"/>
	</linearGradient>
	<path class="st23" d="M308.6,310.2c-6.2,0-11.3-5.1-11.3-11.3c0-6.2,5.1-11.3,11.3-11.3c6.2,0,11.3,5.1,11.3,11.3
		C319.9,305.1,314.8,310.2,308.6,310.2L308.6,310.2z"/>
	<linearGradient id="SVGID_15_" gradientUnits="userSpaceOnUse" x1="300.7463" y1="298.8813" x2="316.4813" y2="298.8813">
		<stop  offset="1.123600e-02" style="stop-color:#444B4C"/>
		<stop  offset="1.844441e-02" style="stop-color:#545A5C"/>
		<stop  offset="3.532334e-02" style="stop-color:#72797B"/>
		<stop  offset="5.443930e-02" style="stop-color:#8D9397"/>
		<stop  offset="7.604926e-02" style="stop-color:#A2A8AD"/>
		<stop  offset="0.1013" style="stop-color:#B3B8BE"/>
		<stop  offset="0.1325" style="stop-color:#BFC4C9"/>
		<stop  offset="0.1763" style="stop-color:#C5CAD0"/>
		<stop  offset="0.2978" style="stop-color:#C7CCD2"/>
		<stop  offset="0.4823" style="stop-color:#C5CAD1"/>
		<stop  offset="0.5488" style="stop-color:#BEC4CF"/>
		<stop  offset="0.5562" style="stop-color:#BDC3CE"/>
		<stop  offset="0.6572" style="stop-color:#ACB2BA"/>
		<stop  offset="0.8635" style="stop-color:#808785"/>
		<stop  offset="0.9944" style="stop-color:#626961"/>
	</linearGradient>
	<path class="st24" d="M308.6,306.8c-4.3,0-7.9-3.5-7.9-7.9c0-4.3,3.5-7.9,7.9-7.9c4.3,0,7.9,3.5,7.9,7.9
		C316.5,303.2,313,306.8,308.6,306.8L308.6,306.8z"/>
	<path class="st12" d="M315,298.9c0,3.5-2.9,6.4-6.4,6.4c-3.5,0-6.4-2.9-6.4-6.4c0-3.5,2.9-6.4,6.4-6.4
		C312.1,292.5,315,295.4,315,298.9z"/>
</g>
<g>
	<linearGradient id="SVGID_16_" gradientUnits="userSpaceOnUse" x1="252.3511" y1="321.2321" x2="277.8719" y2="321.2321">
		<stop  offset="1.123600e-02" style="stop-color:#444B4C"/>
		<stop  offset="1.844441e-02" style="stop-color:#545A5C"/>
		<stop  offset="3.532334e-02" style="stop-color:#72797B"/>
		<stop  offset="5.443930e-02" style="stop-color:#8D9397"/>
		<stop  offset="7.604926e-02" style="stop-color:#A2A8AD"/>
		<stop  offset="0.1013" style="stop-color:#B3B8BE"/>
		<stop  offset="0.1325" style="stop-color:#BFC4C9"/>
		<stop  offset="0.1763" style="stop-color:#C5CAD0"/>
		<stop  offset="0.2978" style="stop-color:#C7CCD2"/>
		<stop  offset="0.4823" style="stop-color:#C5CAD1"/>
		<stop  offset="0.5488" style="stop-color:#BEC4CF"/>
		<stop  offset="0.5562" style="stop-color:#BDC3CE"/>
		<stop  offset="0.6572" style="stop-color:#ACB2BA"/>
		<stop  offset="0.8635" style="stop-color:#808785"/>
		<stop  offset="0.9944" style="stop-color:#626961"/>
	</linearGradient>
	<path class="st25" d="M277.9,321.2c0,7.1-5.7,12.8-12.8,12.8s-12.8-5.7-12.8-12.8c0-7,5.7-12.8,12.8-12.8S277.9,314.2,277.9,321.2z
		"/>
	<linearGradient id="SVGID_17_" gradientUnits="userSpaceOnUse" x1="253.8389" y1="321.232" x2="276.384" y2="321.232">
		<stop  offset="1.123600e-02" style="stop-color:#444B4C"/>
		<stop  offset="1.844441e-02" style="stop-color:#545A5C"/>
		<stop  offset="3.532334e-02" style="stop-color:#72797B"/>
		<stop  offset="5.443930e-02" style="stop-color:#8D9397"/>
		<stop  offset="7.604926e-02" style="stop-color:#A2A8AD"/>
		<stop  offset="0.1013" style="stop-color:#B3B8BE"/>
		<stop  offset="0.1325" style="stop-color:#BFC4C9"/>
		<stop  offset="0.1763" style="stop-color:#C5CAD0"/>
		<stop  offset="0.2978" style="stop-color:#C7CCD2"/>
		<stop  offset="0.4823" style="stop-color:#C5CAD1"/>
		<stop  offset="0.5488" style="stop-color:#BEC4CF"/>
		<stop  offset="0.5562" style="stop-color:#BDC3CE"/>
		<stop  offset="0.6572" style="stop-color:#ACB2BA"/>
		<stop  offset="0.8635" style="stop-color:#808785"/>
		<stop  offset="0.9944" style="stop-color:#626961"/>
	</linearGradient>
	<path class="st26" d="M265.1,332.5c-6.2,0-11.3-5.1-11.3-11.3c0-6.2,5.1-11.3,11.3-11.3c6.2,0,11.3,5.1,11.3,11.3
		C276.4,327.4,271.3,332.5,265.1,332.5L265.1,332.5z"/>
	<linearGradient id="SVGID_18_" gradientUnits="userSpaceOnUse" x1="257.241" y1="321.232" x2="272.976" y2="321.232">
		<stop  offset="1.123600e-02" style="stop-color:#444B4C"/>
		<stop  offset="1.844441e-02" style="stop-color:#545A5C"/>
		<stop  offset="3.532334e-02" style="stop-color:#72797B"/>
		<stop  offset="5.443930e-02" style="stop-color:#8D9397"/>
		<stop  offset="7.604926e-02" style="stop-color:#A2A8AD"/>
		<stop  offset="0.1013" style="stop-color:#B3B8BE"/>
		<stop  offset="0.1325" style="stop-color:#BFC4C9"/>
		<stop  offset="0.1763" style="stop-color:#C5CAD0"/>
		<stop  offset="0.2978" style="stop-color:#C7CCD2"/>
		<stop  offset="0.4823" style="stop-color:#C5CAD1"/>
		<stop  offset="0.5488" style="stop-color:#BEC4CF"/>
		<stop  offset="0.5562" style="stop-color:#BDC3CE"/>
		<stop  offset="0.6572" style="stop-color:#ACB2BA"/>
		<stop  offset="0.8635" style="stop-color:#808785"/>
		<stop  offset="0.9944" style="stop-color:#626961"/>
	</linearGradient>
	<path class="st27" d="M265.1,329.1c-4.3,0-7.9-3.5-7.9-7.9c0-4.3,3.5-7.9,7.9-7.9c4.3,0,7.9,3.5,7.9,7.9
		C273,325.6,269.4,329.1,265.1,329.1L265.1,329.1z"/>
	<path class="st12" d="M271.5,321.2c0,3.5-2.9,6.4-6.4,6.4c-3.5,0-6.4-2.9-6.4-6.4c0-3.5,2.9-6.4,6.4-6.4
		C268.6,314.9,271.5,317.7,271.5,321.2z"/>
</g>
<path class="st2" d="M755.3,219.4c0,0-5.4-11.6,1.9-14.7l28.9-13.1c-0.7-2.1,21.8,46.9,25.1,65.6c0,0,20.4,70.6-10.4,127.3
	l-43.6-0.8C757.2,383.8,805.4,316.6,755.3,219.4z"/>
<path class="st3" d="M787.3,198.9c-20.3,9.2-25.5,11.5-26.9,12.2c-0.1,1.1,0.4,3.4,1.2,5.3c26.8,52,25.8,95.6,20.3,123.1
	c-4.5,22.7-16.6,45-18,47.5"/>
<path class="st3" d="M761.6,385.5c4.2-7.6,13.8-27.5,17.7-46.6c5.4-27,6.3-70-20.1-121.3c-0.9-2.1-2-6-1.2-7.9c0.2-0.4,0.4-0.7,1-1
	c0,0,28.6-13,28.6-13"/>
<path class="st6" d="M259,322.6c0,0-6.2,2.6-24.1-17.8c0,0-2.6-4.4,0.7-4.9c3.3-0.5,8.5-3.4,8.9-5.8c0,0,2.4-4.5,6,0.2
	c0,0,2.2,4.2,15.7,15.1C266.2,309.4,276.6,324.7,259,322.6z"/>
<path class="st6" d="M301.8,301.8c0,0-6.2,2.6-24.1-17.8c0,0-2.6-4.4,0.7-4.9c3.3-0.5,8.5-3.4,8.9-5.8c0,0,2.4-4.5,6,0.2
	c0,0,2.2,4.2,15.7,15.1C309,288.6,319.5,303.9,301.8,301.8z"/>
<path class="st6" d="M347.8,278.2c0,0-11.3-0.8-29.1-21.2c0,0-2.6-4.4,0.7-4.9c3.3-0.5,8.5-3.4,8.9-5.8c0,0,2.4-4.5,6,0.2
	c0,0,7.3,7.6,20.8,18.5C355,265,365.5,280.3,347.8,278.2z"/>
<path class="st6" d="M391,253.2c0,0-13.6-2.3-31.5-22.7c0,0-2.6-4.4,0.7-4.9c3.3-0.5,8.5-3.4,8.9-5.8c0,0,2.4-4.5,6,0.2
	c0,0,9.6,9.1,23.1,20C398.2,240,408.6,255.3,391,253.2z"/>
<path class="st6" d="M433.9,231.4c0,0-18-7.2-35.9-27.7c0,0-2.6-4.4,0.7-4.9c3.3-0.5,8.5-3.4,8.9-5.8c0,0,2.4-4.5,6,0.2
	c0,0,14,14.1,27.5,25C441.1,218.2,451.5,233.5,433.9,231.4z"/>
<g>
	<polygon class="st28" points="800.7,424.5 119.8,429 119.8,422.2 801.9,417.1 	"/>
	<polygon class="st29" points="800.7,424.5 119.8,429 119.8,422.2 801.9,417.1 	"/>
	<g>
		<path class="st30" d="M25.3,368.9c0,0-8.8,16.3-10.6,28.1S37,437.5,37,437.5s130.7,21.6,314,16.8l445-6.3c0,0,17.8-9.3,19-24.5
			c1.2-15.2-10.3-41.2-10.3-41.2l-481.2,1.2C323.5,383.5,160.7,387.9,25.3,368.9z"/>
		<path class="st31" d="M17.3,377.3c0,0-5.4,13.4-5.6,17.4c-0.4,9.9,25.3,45.9,25.3,45.9s130.7,17.9,314,13.9l445-5.2l22.4-25
			c1.2-12.6-5.9-28.5-5.9-28.5h-489C323.5,395.7,135.8,394.8,17.3,377.3z"/>
		<path class="st29" d="M11.7,394.6c0,0-1.5,26.4,2.2,44.2c0,0,98.8,18.6,233.2,22.2h556c0,0,11.3-19.9,15-36.3h-106
			c0,0-6.7-0.3-12.1,5.2l-13.6,15.3H278.5l-31.4-0.3L224,423.8c0,0-7.6-5.7-18.9-6.5C146.3,413.1,50.9,405.6,11.7,394.6z"/>
		
			<pattern  id="SVGID_19_" xlink:href="#New_Pattern_Swatch_4" patternTransform="matrix(0.1609 -0.154 0.1609 0.154 -5345.6631 -5661.3638)">
		</pattern>
		<path class="st32" d="M11.7,394.6c0,0-1.5,26.4,2.2,44.2c0,0,98.8,18.6,233.2,22.2h556c0,0,11.3-19.9,15-36.3h-106
			c0,0-6.7-0.3-12.1,5.2l-13.6,15.3H278.5l-31.4-0.3L224,423.8c0,0-7.6-5.7-18.9-6.5C146.3,413.1,50.9,405.6,11.7,394.6z"/>
	</g>
</g>
</svg>
