<?xml version="1.0" standalone="no"?>
<!DOCTYPE svg PUBLIC "-//W3C//DTD SVG 1.1//EN" "http://www.w3.org/Graphics/SVG/1.1/DTD/svg11.dtd" >
<svg xmlns="http://www.w3.org/2000/svg" xmlns:xlink="http://www.w3.org/1999/xlink" version="1.1">
<metadata></metadata>
<defs>
<font id="cosmosregular" horiz-adv-x="1228" >
<font-face units-per-em="2048" ascent="1638" descent="-410" />
<missing-glyph horiz-adv-x="614" />
<glyph horiz-adv-x="0" />
<glyph horiz-adv-x="682" />
<glyph unicode=" "  horiz-adv-x="614" />
<glyph unicode="&#x09;" horiz-adv-x="614" />
<glyph unicode="&#xa0;" horiz-adv-x="614" />
<glyph unicode="!" horiz-adv-x="694" d="M205 1481h284l-45 -1098h-194zM221 0v236h250v-236h-250z" />
<glyph unicode="&#x22;" horiz-adv-x="894" d="M164 1481h219l-35 -473h-149zM514 1481h217l-35 -473h-149z" />
<glyph unicode="#" d="M47 406v178h234l53 297h-203v174h234l75 426h195l-76 -426h229l76 426h197l-76 -426h199v-174h-232l-53 -297h203v-178h-234l-71 -406h-197l72 406h-230l-71 -406h-195l72 406h-201zM475 584h230l53 297h-230z" />
<glyph unicode="$" d="M84 408h240q0 -123 61 -179.5t180 -68.5v471q-145 41 -237 82t-155.5 123t-63.5 217q0 190 132 293.5t324 113.5v185h123v-187q195 -14 304.5 -102t117.5 -285h-242q-2 92 -47 137t-133 64v-451q147 -41 237.5 -81t154 -122.5t63.5 -220.5q0 -194 -129 -297.5 t-326 -117.5v-189h-123v187q-481 10 -481 428zM352 1071q0 -90 58.5 -140t154.5 -79v426q-92 -8 -152.5 -60.5t-60.5 -146.5zM688 162q94 16 152.5 71.5t58.5 149.5q0 92 -54 136t-157 77v-434z" />
<glyph unicode="%" horiz-adv-x="1886" d="M53 1110q0 174 86 288.5t258 114.5q170 0 253 -111.5t83 -287.5q0 -178 -83 -292.5t-257 -114.5q-170 0 -255 114.5t-85 288.5zM238 1098q0 -100 35.5 -178t121.5 -78q88 0 122 81t34 185t-33 187t-119 83q-92 0 -126.5 -86t-34.5 -194zM424 -53l868 1593h166l-864 -1593 h-170zM1153 391q0 174 86 289t256 115q172 0 255 -113t83 -287q0 -176 -84 -292.5t-256 -116.5q-170 0 -255 115.5t-85 289.5zM1335 379q0 -100 36 -179t122 -79q88 0 123 81t35 187q0 105 -33 187.5t-121 82.5q-92 0 -127 -83.5t-35 -196.5z" />
<glyph unicode="&#x26;" horiz-adv-x="1568" d="M104 424q0 156 93.5 250t246.5 125q-272 70 -272 334q0 129 72.5 215t185.5 125.5t234 39.5q115 0 276 -24v-184q-135 31 -211 30q-125 0 -217 -56t-92 -177q0 -223 356 -223h240v301h237v-301h275v-177h-275v-702h-563q-246 0 -416 95t-170 329zM362 444 q0 -115 57.5 -172t143.5 -73.5t209 -16.5h244v516h-244q-176 0 -293 -50t-117 -204z" />
<glyph unicode="'" horiz-adv-x="546" d="M164 1481h219l-35 -473h-149z" />
<glyph unicode="(" horiz-adv-x="634" d="M129 582q0 201 57.5 392t167.5 468q4 12 8.5 21.5t6.5 17.5h168l-17 -51q-86 -285 -129 -471.5t-43 -380.5q0 -344 191 -883h-172q-78 188 -125 318t-80 276.5t-33 292.5z" />
<glyph unicode=")" horiz-adv-x="634" d="M96 1481h170q115 -270 177.5 -476t62.5 -415q0 -205 -61.5 -410t-178.5 -485h-168l29 92q80 262 119 436t39 355q0 207 -47.5 409.5t-141.5 493.5z" />
<glyph unicode="*" horiz-adv-x="960" d="M90 1016v182l299 -37l-184 236l160 92l118 -272l115 272l160 -94l-183 -234l295 37v-182l-290 39l180 -244l-166 -86l-113 270l-116 -274l-158 90l180 242z" />
<glyph unicode="+" horiz-adv-x="1370" d="M158 430v182h432v428h192v-428h430v-182h-430v-430h-192v430h-432z" />
<glyph unicode="," horiz-adv-x="614" d="M78 -246l119 475h264l-199 -475h-184z" />
<glyph unicode="-" horiz-adv-x="657" d="M57 463v164h543v-164h-543z" />
<glyph unicode="." horiz-adv-x="614" d="M182 117q0 51 37 88t88 37q53 0 90 -37t37 -88q0 -53 -37 -91t-90 -38q-51 0 -88 37.5t-37 91.5z" />
<glyph unicode="/" horiz-adv-x="587" d="M-37 -27l473 1540h189l-473 -1540h-189z" />
<glyph unicode="0" d="M84 760q0 195 51 364.5t171 279t315 109.5q285 0 405.5 -220t120.5 -537q0 -322 -124 -552.5t-411 -230.5q-289 0 -408.5 230.5t-119.5 556.5zM336 735q0 -227 54 -405t220 -178q172 0 230.5 178t58.5 407q0 602 -276 602q-176 0 -231.5 -181t-55.5 -423z" />
<glyph unicode="1" d="M274 1042v205q109 39 191 93.5t172 140.5h211v-1481h-244v1243q-129 -121 -330 -201z" />
<glyph unicode="2" d="M106 0v215q229 197 390 350q254 246 315 389q35 80 35 150q0 106 -62.5 169.5t-165.5 63.5q-111 0 -175 -71.5t-66 -190.5h-252q2 145 70.5 244.5t182.5 146.5t251 47q201 0 336 -98t135 -297q0 -223 -262 -514q-76 -84 -232 -225l-215 -193h723v-186h-1008z" />
<glyph unicode="3" d="M74 410h250q2 -123 78.5 -194t199.5 -71q129 0 210 75t81 204q0 135 -98.5 196.5t-239.5 61.5h-39q-27 0 -41 -2v166q23 -4 49.5 -3t36.5 1q127 0 216 62.5t89 187.5q0 115 -71.5 182t-192.5 67q-233 0 -256 -251h-248q0 139 76 234t192.5 141t241.5 46q145 0 259 -48 t178.5 -139t64.5 -216q0 -129 -82 -218t-209 -118q150 -27 238 -122t88 -249q0 -147 -80 -244.5t-205 -141.5t-262 -44q-231 0 -377.5 110t-146.5 327z" />
<glyph unicode="4" d="M61 332v221l623 928h287v-975h227l2 -174h-227v-332h-236v332h-676zM248 506h491v747z" />
<glyph unicode="5" d="M123 379h252q2 -111 67.5 -171.5t175.5 -60.5q133 0 203 100.5t70 246.5q0 135 -65.5 228t-190.5 93q-88 0 -155.5 -52t-86.5 -142h-248l33 860h885v-176h-660l-22 -471q61 80 132 116.5t183 36.5q137 0 237.5 -64.5t154 -176t53.5 -252.5q0 -138 -60.5 -257.5 t-177.5 -192.5t-278 -73q-223 0 -362.5 95.5t-139.5 312.5z" />
<glyph unicode="6" d="M102 721q0 334 128 563t429 229q121 0 224.5 -40.5t170 -129t70.5 -221.5h-243q-8 104 -68.5 162.5t-159.5 58.5q-172 0 -242.5 -171t-70.5 -404q117 211 367 211q137 0 239.5 -62.5t156.5 -173t54 -251.5q0 -148 -65.5 -265.5t-180 -185.5t-258.5 -68q-297 0 -424 211 t-127 537zM371 477q0 -137 74.5 -232t201.5 -95q131 0 203 96t72 237q0 140 -68 234t-197 94q-133 0 -209.5 -96.5t-76.5 -237.5z" />
<glyph unicode="7" d="M104 1292v189h1002v-203l-549 -1278h-283l598 1292h-768z" />
<glyph unicode="8" d="M78 397q0 152 89 246t236 131q-131 27 -210.5 113t-79.5 221q0 137 72.5 228t188 134t244.5 43q125 0 240 -40.5t188.5 -128t73.5 -222.5q0 -137 -77.5 -224t-208.5 -122q141 -25 230 -120t89 -242q0 -148 -74.5 -247t-195.5 -146.5t-260 -47.5t-263 43t-203 137.5 t-79 243.5zM319 422q0 -129 84 -206t209 -77q80 0 148.5 35t110.5 98.5t42 149.5q0 129 -87 198.5t-214 69.5q-125 0 -209 -70.5t-84 -197.5zM346 1098q0 -119 77 -181.5t195 -62.5q111 0 191 66.5t80 179.5q0 117 -78 185.5t-190 68.5q-117 0 -196 -68.5t-79 -187.5z" />
<glyph unicode="9" d="M84 1024q0 150 68.5 260.5t185.5 169.5t260 59q295 0 416 -200.5t121 -524.5q0 -358 -116 -588.5t-435 -230.5q-205 0 -339 98.5t-147 305.5h246q2 -106 70.5 -167t171.5 -61q119 0 182 59.5t86 144.5t37 214q6 57 10 178q-123 -188 -358 -188q-133 0 -237.5 59.5 t-163 166t-58.5 245.5zM319 1030q0 -133 72 -220t197 -87q131 0 210 86t79 223q0 131 -76 219t-199 88q-127 0 -205 -87t-78 -222z" />
<glyph unicode=":" horiz-adv-x="614" d="M182 0v236h252v-236h-252zM182 797v235h252v-235h-252z" />
<glyph unicode=";" horiz-adv-x="614" d="M78 -246l119 479h264l-199 -479h-184zM174 797v235h252v-235h-252z" />
<glyph unicode="&#x3c;" horiz-adv-x="1370" d="M158 424v190l1054 418v-196l-831 -318l831 -313v-199z" />
<glyph unicode="=" horiz-adv-x="1370" d="M158 215v182h1054v-182h-1054zM158 641v180h1054v-180h-1054z" />
<glyph unicode="&#x3e;" horiz-adv-x="1368" d="M158 6v199l831 313l-831 318v196l1052 -418v-190z" />
<glyph unicode="?" horiz-adv-x="1087" d="M178 1298v185q131 25 262 24q215 0 359.5 -89t144.5 -292q0 -127 -104 -254q-41 -47 -97.5 -97t-74.5 -66q-31 -25 -33 -27q-55 -49 -74.5 -79t-19.5 -91v-129h-205v147q0 43 6 75t25 65q23 39 56.5 73.5t88.5 83.5q88 76 133 136.5t45 142.5q0 117 -85 172t-210 55 q-92 0 -217 -35zM313 0v236h250v-236h-250z" />
<glyph unicode="@" horiz-adv-x="1642" d="M53 719q0 229 113 410.5t304.5 282.5t420.5 101q188 0 348 -72.5t255 -211.5t95 -330q0 -127 -51 -252t-149.5 -207t-229.5 -82q-84 0 -128 50.5t-38 128.5q-100 -182 -288 -183q-131 0 -205 93.5t-74 226.5q0 115 53 229.5t148.5 188t214.5 73.5q86 0 149.5 -37.5 t87.5 -113.5l35 121h164q-4 -14 -37 -113l-59 -188q-63 -209 -64 -281q0 -39 22.5 -59.5t61.5 -20.5q82 0 144.5 72.5t96.5 175t34 182.5q0 162 -79 276.5t-212 172t-295 57.5q-201 0 -366 -87t-261 -243.5t-96 -357.5q0 -195 92 -341.5t251 -225t353 -78.5q158 0 295 50 t277 150l59 -81q-156 -115 -307.5 -168.5t-333.5 -53.5q-219 0 -402.5 93.5t-291 262.5t-107.5 390zM616 659q0 -76 35 -131t105 -55q76 0 135 75t92 178t33 177q0 62 -38 103t-97 41q-76 0 -136.5 -64.5t-94.5 -157t-34 -166.5z" />
<glyph unicode="A" horiz-adv-x="1505" d="M0 0l604 1481h281l620 -1481h-284l-142 369h-686l-139 -369h-254zM463 549h545l-277 729z" />
<glyph unicode="B" horiz-adv-x="1404" d="M186 0v1481h562q217 0 355 -84t138 -289q0 -131 -72.5 -215t-201.5 -121q154 -27 241.5 -117t87.5 -241q0 -226 -160.5 -320t-396.5 -94h-553zM434 186h244q164 0 261 49.5t97 192.5q0 137 -84 191.5t-231 54.5h-287v-488zM434 850h254q133 0 215 52t82 177 q0 113 -78 164t-198 51h-275v-444z" />
<glyph unicode="C" horiz-adv-x="1433" d="M98 729q0 217 75 393t226.5 280.5t370.5 104.5q141 0 265 -46t203 -144t83 -246h-262q-12 115 -93 176.5t-198 61.5q-145 0 -236.5 -86t-130.5 -217.5t-39 -276.5q0 -229 98.5 -395t313.5 -166q121 0 210 67.5t95 192.5h267q-21 -229 -184 -341t-392 -112 q-336 0 -504 207t-168 547z" />
<glyph unicode="D" horiz-adv-x="1560" d="M186 0v1481h473q803 0 803 -736q0 -319 -152.5 -509.5t-465.5 -225.5q-102 -10 -250 -10h-408zM440 186h232q276 0 402 140.5t126 418.5q0 246 -92 367t-208 151.5t-259 30.5h-201v-1108z" />
<glyph unicode="E" horiz-adv-x="1263" d="M186 0v1481h959v-189h-709v-440h676v-186h-676v-478h735v-188h-985z" />
<glyph unicode="F" horiz-adv-x="1181" d="M186 0v1481h930v-189h-680v-446h645v-187h-645v-659h-250z" />
<glyph unicode="G" horiz-adv-x="1533" d="M98 741q0 221 84 396.5t246 275.5t387 100q231 0 383 -108.5t170 -333.5h-260q-18 125 -98 186.5t-207 61.5q-150 0 -248 -81t-143 -210t-45 -276q0 -162 51 -294t158.5 -211t271.5 -79q147 0 282 39v395h-335v182h579v-723q-307 -81 -536 -81q-233 0 -399.5 94 t-253.5 265t-87 402z" />
<glyph unicode="H" horiz-adv-x="1587" d="M186 0v1481h254v-627h707v627h254v-1481h-254v659h-707v-659h-254z" />
<glyph unicode="I" horiz-adv-x="638" d="M193 0v1481h253v-1481h-253z" />
<glyph unicode="J" horiz-adv-x="1153" d="M12 356v52h260v-46q0 -88 58.5 -141t148.5 -53q125 0 174 79t49 212v1022h254v-1022q0 -240 -121.5 -361t-363.5 -121q-121 0 -225.5 42t-169 128t-64.5 209z" />
<glyph unicode="K" horiz-adv-x="1402" d="M186 0v1481h254v-670l586 670h320l-621 -662l688 -819h-328l-645 807v-807h-254z" />
<glyph unicode="L" horiz-adv-x="1191" d="M186 0v1481h254v-1291h713v-190h-967z" />
<glyph unicode="M" horiz-adv-x="2027" d="M186 0v1481h394l440 -1209l428 1209h393v-1481h-235v1298l-484 -1298h-227l-483 1298v-1298h-226z" />
<glyph unicode="N" horiz-adv-x="1593" d="M182 0v1481h348l656 -1239v1239h225v-1481h-348l-655 1239v-1239h-226z" />
<glyph unicode="O" horiz-adv-x="1572" d="M98 739q0 221 77 396.5t232.5 276.5t380.5 101q229 0 384 -98t229 -270t74 -397q0 -222 -77 -397t-231.5 -276.5t-382.5 -101.5q-227 0 -381.5 98.5t-229.5 271.5t-75 396zM358 745q0 -242 100.5 -410.5t325.5 -168.5t326.5 169t101.5 410q0 244 -100 410t-328 166 q-152 0 -247 -83t-137 -214t-42 -279z" />
<glyph unicode="P" horiz-adv-x="1316" d="M186 0v1481h502q123 0 214 -15.5t169 -64.5q92 -59 138 -154.5t46 -208.5q0 -135 -70.5 -238.5t-195.5 -152.5q-63 -25 -144 -33t-188 -8h-217v-606h-254zM440 793h187q170 0 268 53t98 207q0 139 -86 190t-239 51h-228v-501z" />
<glyph unicode="Q" horiz-adv-x="1572" d="M98 739q0 223 78 397.5t233.5 275.5t381.5 101q219 0 372.5 -93t231.5 -259t78 -383q0 -414 -279 -616q145 18 344 18v-180l-238 2q-92 0 -268 -12q-180 -12 -270 -13q-217 0 -366.5 102.5t-223.5 274.5t-74 385zM358 745q0 -242 100.5 -409.5t325.5 -167.5t326.5 168 t101.5 409q0 244 -100 410t-328 166q-152 0 -247 -83t-137 -213t-42 -280z" />
<glyph unicode="R" horiz-adv-x="1417" d="M186 0v1481h562q233 0 380.5 -78t147.5 -291q0 -276 -299 -354q90 -16 137 -56t66.5 -102.5t27.5 -163.5q14 -160 30.5 -250t57.5 -186h-260q-22 74 -32.5 146.5t-20.5 181.5l-4 45q-12 117 -29.5 172t-69 83.5t-159.5 28.5h-281v-657h-254zM440 838h213q168 0 269.5 47 t101.5 190q0 131 -91 175t-241 44h-252v-456z" />
<glyph unicode="S" horiz-adv-x="1343" d="M102 414h254q10 -123 95.5 -185.5t212.5 -62.5q125 0 220 60.5t95 176.5q0 94 -71.5 142.5t-190.5 85.5l-62 18q-160 49 -263 94t-178 128t-75 212q0 145 79 240.5t205 138.5t269 43q223 0 366.5 -94t145.5 -307h-254q-20 221 -270 221q-115 0 -199 -56.5t-84 -162.5 q0 -72 52.5 -119t122 -73.5t171.5 -55.5l72 -20q131 -41 220 -87t147.5 -126t58.5 -199q0 -154 -84 -254t-217 -147.5t-283 -47.5q-236 0 -389 105.5t-166 331.5z" />
<glyph unicode="T" horiz-adv-x="1212" d="M12 1290v191h1188v-191h-467v-1290h-254v1290h-467z" />
<glyph unicode="U" horiz-adv-x="1589" d="M174 594v887h262v-879q0 -209 81 -323.5t282 -114.5q199 0 280.5 118.5t81.5 325.5v873h254v-893q0 -305 -157.5 -461t-464.5 -156q-315 0 -467 155t-152 468z" />
<glyph unicode="V" horiz-adv-x="1404" d="M0 1481h276l437 -1245l440 1245h252l-557 -1481h-293z" />
<glyph unicode="W" horiz-adv-x="2205" d="M18 1481h269l305 -1256l369 1256h305l368 -1252l303 1252h250l-399 -1481h-307l-375 1247l-369 -1247h-313z" />
<glyph unicode="X" horiz-adv-x="1437" d="M2 0l551 770l-524 711h303l391 -563l367 563h292l-505 -709l559 -772h-295l-434 614l-408 -614h-297z" />
<glyph unicode="Y" horiz-adv-x="1351" d="M-27 1483h297l420 -686l414 686h274l-575 -893v-590h-254v600z" />
<glyph unicode="Z" horiz-adv-x="1239" d="M41 0v209l829 1079h-776v193h1080v-189l-855 -1099h879v-193h-1157z" />
<glyph unicode="[" horiz-adv-x="632" d="M147 -307v1788h416v-144h-223v-1501h223v-143h-416z" />
<glyph unicode="\" horiz-adv-x="587" d="M-37 1513h189l473 -1540h-189z" />
<glyph unicode="]" horiz-adv-x="632" d="M70 -164h223v1501h-223v144h415v-1788h-415v143z" />
<glyph unicode="^" horiz-adv-x="1372" d="M236 612l358 869h180l363 -869h-211l-242 629l-240 -629h-208z" />
<glyph unicode="_" horiz-adv-x="1034" d="M0 -154h1034v-102h-1034v102z" />
<glyph unicode="`" horiz-adv-x="632" d="M-6 1507h280l203 -297h-168z" />
<glyph unicode="a" horiz-adv-x="1126" d="M59 291q0 162 111 237.5t250 93t332 17.5v53q0 113 -45 169.5t-154 56.5q-90 0 -136 -42t-52 -135h-230q2 168 119 243t293 75q219 0 327.5 -87t108.5 -306v-306q0 -184 21 -360h-224q-8 47 -16 141q-61 -88 -144 -126t-196 -38q-158 0 -261.5 81t-103.5 233zM295 301 q0 -80 59.5 -127t141.5 -47q154 0 206 104.5t52 278.5q-31 2 -84 2q-152 0 -263.5 -44t-111.5 -167z" />
<glyph unicode="b" horiz-adv-x="1255" d="M147 0q6 68 7 195v96v1190h237v-602q123 178 342 178q221 0 331 -148.5t110 -376.5q0 -147 -51.5 -273t-155 -201.5t-256.5 -75.5q-104 0 -178 39.5t-142 123.5l-8 -145h-236zM387 518q0 -152 62.5 -263.5t201.5 -111.5q150 0 214.5 109.5t64.5 271.5q0 152 -60.5 262.5 t-197.5 110.5q-145 0 -215 -111.5t-70 -267.5z" />
<glyph unicode="c" horiz-adv-x="1122" d="M82 508q0 164 62.5 290t182 195.5t285.5 69.5q193 0 314 -93t137 -282h-234q-6 102 -62 161.5t-155 59.5q-150 0 -216 -114.5t-66 -276.5q0 -156 65.5 -272.5t208.5 -116.5q104 0 162.5 64.5t62.5 173.5h238q-4 -185 -135 -289.5t-334 -104.5q-248 0 -382 144.5 t-134 390.5z" />
<glyph unicode="d" horiz-adv-x="1257" d="M82 520q0 143 50 266t152.5 197t252.5 74q111 0 187.5 -40t139.5 -128v592h238v-1190q0 -190 8 -291h-236l-8 145q-68 -86 -143.5 -124.5t-183.5 -38.5q-229 0 -343 153.5t-114 384.5zM326 524q0 -160 65.5 -270.5t214.5 -110.5q139 0 200.5 112t61.5 263 q0 156 -68.5 267.5t-213.5 111.5q-139 0 -199.5 -110.5t-60.5 -262.5z" />
<glyph unicode="e" horiz-adv-x="1144" d="M80 500q0 252 132 404.5t382 152.5q258 0 364.5 -159t106.5 -429h-752v-16q0 -139 72 -232.5t205 -93.5q100 0 163.5 56.5t77.5 156.5h230q-29 -182 -159 -272.5t-320 -90.5q-242 0 -372 140.5t-130 382.5zM319 614h515q0 125 -61.5 208t-182.5 83t-189.5 -83t-81.5 -208 z" />
<glyph unicode="f" horiz-adv-x="741" d="M29 874v160h204v99q0 113 23 189.5t91.5 122.5t199.5 46q53 0 172 -8v-166q-65 4 -90 4q-90 0 -125 -37t-35 -129v-121h233v-160h-233v-874h-238v874h-202z" />
<glyph unicode="g" horiz-adv-x="1263" d="M82 532q0 143 52 261t154.5 189t250.5 71q231 0 344 -183l2 162h235q-6 -235 -6 -366v-416q0 -233 -37 -371.5t-148.5 -213.5t-330.5 -75q-193 0 -325 74t-132 254h228q0 -94 64.5 -136t162.5 -42q125 0 186.5 56.5t78 141.5t16.5 218v30q-117 -172 -338 -172 q-150 0 -252.5 69t-153.5 186.5t-51 262.5zM332 528q0 -150 65.5 -255t206.5 -105q143 0 208 109.5t65 265.5q0 141 -69 249.5t-202 108.5q-143 0 -208.5 -109.5t-65.5 -263.5z" />
<glyph unicode="h" horiz-adv-x="1251" d="M154 0v1481h237v-598q127 166 332 166q195 0 285 -99.5t90 -294.5v-655h-238v565q0 100 -13 166t-60.5 108t-141.5 42q-133 0 -193.5 -96.5t-60.5 -241.5v-543h-237z" />
<glyph unicode="i" horiz-adv-x="544" d="M147 1374q0 51 37 88t88 37q53 0 90 -37t37 -88q0 -53 -36.5 -91t-90.5 -38q-51 0 -88 38t-37 91zM154 0v1034h237v-1034h-237z" />
<glyph unicode="j" horiz-adv-x="544" d="M-35 -213q53 -4 74 -4q53 0 77.5 18.5t31 50t6.5 91.5v1091h237v-1147q0 -112 -32.5 -170.5t-98 -81t-178.5 -22.5q-25 0 -74 4l-43 2v168zM145 1270v211h254v-211h-254z" />
<glyph unicode="k" horiz-adv-x="1161" d="M154 0v1481h237v-895l436 448h293l-454 -442l497 -592h-303l-469 582v-582h-237z" />
<glyph unicode="l" horiz-adv-x="544" d="M154 0v1481h237v-1481h-237z" />
<glyph unicode="m" horiz-adv-x="1933" d="M147 1032h234l6 -162q111 176 334 177q121 0 203 -47.5t125 -153.5q113 201 364 201q197 0 282 -112t85 -312v-623h-238v594q0 135 -46 210t-171 75q-135 0 -187.5 -83t-52.5 -227v-569h-237v588q0 135 -44 213t-169 78t-184.5 -87t-59.5 -219v-573h-237v635 q0 195 -7 397z" />
<glyph unicode="n" horiz-adv-x="1251" d="M147 1032h236l4 -155q66 88 146.5 129t191.5 41q373 0 373 -394v-653h-238v561q0 100 -13 166t-60.5 109t-141.5 43q-147 0 -200.5 -112t-53.5 -267v-500h-237v805q0 49 -4 151z" />
<glyph unicode="o" horiz-adv-x="1232" d="M82 522q0 162 66.5 283t188.5 187.5t284 66.5q248 0 389 -144.5t141 -392.5q0 -160 -65.5 -283.5t-186.5 -192.5t-283 -69q-166 0 -286.5 68t-184 190.5t-63.5 286.5zM330 520q0 -160 69.5 -276.5t216.5 -116.5t217 117.5t70 275.5q0 160 -68.5 271.5t-218.5 111.5 t-218 -111.5t-68 -271.5z" />
<glyph unicode="p" horiz-adv-x="1255" d="M147 1032h234l6 -164q119 186 344 187q147 0 246.5 -72t148 -189.5t48.5 -261.5q0 -145 -51.5 -272t-155 -203.5t-254.5 -76.5q-106 0 -181 37.5t-139 121.5v-528h-237v1147q0 150 -9 274zM389 512q0 -154 60.5 -265.5t199.5 -111.5q147 0 214 112.5t67 272.5 q0 152 -61.5 264.5t-200.5 112.5q-145 0 -212 -113.5t-67 -271.5z" />
<glyph unicode="q" horiz-adv-x="1257" d="M82 526q0 141 50 262t152.5 194t250.5 73q117 0 195.5 -41t139.5 -135l4 153h236q-8 -163 -8 -274v-1147h-238v530q-66 -84 -140.5 -122.5t-178.5 -38.5q-233 0 -348 154.5t-115 391.5zM328 520q0 -160 66.5 -270.5t213.5 -110.5q139 0 199.5 109.5t60.5 263.5 q0 156 -66.5 270.5t-211.5 114.5q-139 0 -200.5 -111.5t-61.5 -265.5z" />
<glyph unicode="r" horiz-adv-x="778" d="M147 1032h232l6 -170q102 178 315 178q14 0 56 -4v-213q-65 8 -90 8q-145 0 -210 -77.5t-65 -227.5v-526h-237q0 37 1 154.5t1 277.5q0 215 -2 295z" />
<glyph unicode="s" horiz-adv-x="1054" d="M86 324h238q10 -201 204 -201q80 0 141.5 42t61.5 116q0 82 -94 125q-37 16 -98 32l-113 29q-145 37 -229 98.5t-84 190.5q0 106 64.5 173.5t161.5 98.5t202 31q176 0 284.5 -78t116.5 -248h-233q-2 92 -47.5 135t-135.5 43q-72 0 -129 -33.5t-57 -99.5q0 -41 24.5 -67.5 t71.5 -48.5q37 -16 99 -33l63 -17l53 -12q150 -39 234 -101.5t84 -191.5q0 -174 -133.5 -253t-317.5 -79q-188 0 -307 82t-125 267z" />
<glyph unicode="t" horiz-adv-x="743" d="M23 872v162h198v187l238 96v-283h235v-162h-235v-540q0 -68 8 -102.5t39 -52t94 -17.5q18 0 51 4q43 6 47 6v-168q-114 -14 -188 -14q-145 0 -217 57t-72 199v628h-198z" />
<glyph unicode="u" horiz-adv-x="1253" d="M154 379v653h237v-561q0 -100 13.5 -166.5t61.5 -108.5t142 -42q137 0 194.5 95t57.5 243v540h238v-659q0 -123 8 -373h-236l-6 156q-68 -88 -145.5 -129t-188.5 -41q-188 0 -282 102t-94 291z" />
<glyph unicode="v" horiz-adv-x="1120" d="M12 1032h256l307 -815l302 815h231l-422 -1032h-248z" />
<glyph unicode="w" horiz-adv-x="1816" d="M23 1032h260l243 -807l265 807h270l262 -799l242 799h229l-367 -1032h-245l-269 811l-276 -811h-246z" />
<glyph unicode="x" horiz-adv-x="1107" d="M12 0l394 532l-373 500h295l235 -360l242 360h256l-365 -500l400 -532h-295l-269 401l-262 -401h-258z" />
<glyph unicode="y" horiz-adv-x="1126" d="M12 1032h281l293 -788l295 788h233l-582 -1421h-227l158 389z" />
<glyph unicode="z" horiz-adv-x="970" d="M66 0v168l567 694h-549v170h803v-174l-553 -690h571v-168h-839z" />
<glyph unicode="{" horiz-adv-x="782" d="M31 520v131q102 6 158.5 42t78.5 95q20 55 25 127l4 146q2 123 31.5 207t126 143t286.5 70v-127q-92 -6 -143 -37t-76 -84q-18 -43 -24 -93t-7.5 -95.5t-1.5 -57.5q-2 -113 -16 -188.5t-71.5 -134t-174.5 -78.5q115 -20 171.5 -78.5t71.5 -131.5t17 -188 q2 -125 15.5 -193.5t68 -118.5t170.5 -56v-129q-188 10 -284.5 68.5t-126 142.5t-33.5 204q0 33 -2 50q-2 119 -15.5 187.5t-70.5 117.5t-178 59z" />
<glyph unicode="|" horiz-adv-x="520" d="M162 -436v2046h196v-2046h-196z" />
<glyph unicode="}" horiz-adv-x="782" d="M41 -180q90 6 142.5 36.5t76.5 84.5q20 47 26.5 101t8.5 146q2 115 17.5 188t71.5 131t171 79q-117 20 -174 78.5t-71.5 134t-16.5 188.5q-2 125 -14.5 193.5t-65.5 118t-172 55.5v127q190 -10 286.5 -69.5t126 -143.5t31.5 -207l4 -146q4 -72 25 -127q23 -59 79 -95 t159 -42v-131q-103 -8 -158 -44t-80 -97q-16 -43 -21.5 -97.5t-6.5 -104.5t-1 -71q-4 -121 -33.5 -204.5t-126 -142t-284.5 -68.5v129z" />
<glyph unicode="~" horiz-adv-x="1370" d="M135 352q14 135 84 232.5t195 97.5q63 0 124.5 -17.5t151.5 -52.5t150.5 -52t124.5 -17q119 0 145 143h125q-12 -135 -80 -231.5t-194 -96.5q-63 0 -124 17.5t-161 54.5q-90 35 -149.5 52.5t-118.5 17.5q-61 0 -99.5 -42t-46.5 -106h-127z" />
<glyph unicode="&#xa1;" horiz-adv-x="694" d="M205 -434l45 1098h194l45 -1098h-284zM221 811v236h250v-236h-250z" />
<glyph unicode="&#xa2;" d="M127 508q0 164 62.5 290t182.5 195.5t285 69.5q23 0 68 -4l61 235l117 -22l-61 -236q115 -37 184.5 -124t81.5 -224h-234q-6 117 -77 176l-191 -731q29 -4 43 -4q104 0 162.5 64.5t62.5 173.5h238q-4 -185 -135 -289.5t-334 -104.5q-29 0 -78 4l-59 -233l-115 23l60 235 q-158 49 -241 182t-83 324zM375 518q0 -104 29.5 -195.5t93.5 -142.5l188 727q-9 2 -29 2q-150 0 -216 -114.5t-66 -276.5z" />
<glyph unicode="&#xa3;" d="M66 733v168h167v35q0 276 115 426.5t381 150.5q444 0 455 -385h-246q-4 105 -57.5 162.5t-153.5 57.5q-111 0 -166 -59.5t-69.5 -144.5t-14.5 -208v-35h318v-168h-318v-559h651v-174h-1028v174h133v559h-167z" />
<glyph unicode="&#xa4;" d="M113 367l133 133q-76 113 -76 248t76 247l-133 131l118 119l136 -131q123 76 245 76q70 0 130.5 -18.5t121.5 -57.5l133 131l121 -119l-133 -133q78 -125 78 -248t-80 -245l135 -131l-121 -121l-133 133q-121 -78 -248 -78t-247 78l-136 -133zM348 745q0 -72 36 -132 t98.5 -96t133.5 -36q72 0 133.5 36t97.5 96.5t36 131.5q0 72 -36 133.5t-97.5 97.5t-133.5 36q-74 0 -135 -36t-97 -97.5t-36 -133.5z" />
<glyph unicode="&#xa5;" d="M-43 1481h299l371 -670l372 670h271l-459 -758h283v-148h-359v-106h359v-150h-359v-319h-254v319h-356v150h356v106h-356v148h287z" />
<glyph unicode="&#xa6;" horiz-adv-x="520" d="M162 -182v518h196v-518h-196zM162 836v518h196v-518h-196z" />
<glyph unicode="&#xa7;" horiz-adv-x="1247" d="M215 723q0 98 56.5 159.5t158.5 112.5q-180 82 -180 244q0 145 114.5 209.5t270.5 64.5q123 0 287 -34v-168q-143 43 -244 43q-72 0 -127 -29t-55 -92q0 -57 79 -100q33 -16 84 -37l56 -21q33 -10 41 -14q123 -45 193.5 -105.5t70.5 -162.5q0 -164 -199 -261 q96 -41 147.5 -98t51.5 -153q0 -160 -130 -233t-302 -73q-182 0 -332 48v165q135 -51 264 -51q96 0 171 32t75 112q0 66 -84 108q-33 16 -88 35l-100 33q-131 45 -205 102t-74 164zM442 766q0 -49 32 -83t71 -52.5t106 -42.5q141 82 142 170q0 63 -74 114q-41 27 -131 64 q-66 -37 -106 -76t-40 -94z" />
<glyph unicode="&#xa8;" horiz-adv-x="630" d="M-16 1278v207h231v-207h-231zM416 1278v207h231v-207h-231z" />
<glyph unicode="&#xa9;" horiz-adv-x="1646" d="M49 741q0 209 104.5 386.5t281.5 281.5t388 104t388.5 -103t281.5 -281.5t104 -387.5t-104 -385t-282.5 -279.5t-387.5 -103.5t-387 103.5t-282.5 279.5t-104.5 385zM156 741q0 -180 90 -331.5t243.5 -240.5t333.5 -89t334 89t244 241.5t90 330.5q0 181 -90 333.5 t-243.5 242.5t-334.5 90q-180 0 -333.5 -90t-243.5 -242.5t-90 -333.5zM440 741q0 203 96.5 330t294.5 127q129 0 221.5 -63.5t94.5 -190.5h-150q-8 63 -55 98t-113 35q-125 0 -179 -98t-54 -236q0 -137 54.5 -233t178.5 -96q70 0 117 34.5t58 102.5h151 q-12 -131 -104.5 -195.5t-227.5 -64.5q-195 0 -289 126t-94 324z" />
<glyph unicode="&#xaa;" horiz-adv-x="706" d="M47 1061q0 121 104.5 169t245.5 48q43 0 62 -2q0 72 -20.5 102.5t-88.5 30.5q-51 0 -78.5 -23.5t-31.5 -74.5h-160q16 203 270 202q115 0 173.5 -34.5t74.5 -92t16 -151.5v-154q0 -104 15 -198h-160l-6 71q-41 -45 -86 -64.5t-109 -19.5q-94 0 -157.5 50.5t-63.5 140.5z M211 1071q0 -41 29.5 -66.5t72.5 -25.5q84 0 115 53t31 144h-35q-90 0 -151.5 -19.5t-61.5 -85.5z" />
<glyph unicode="&#xab;" horiz-adv-x="1075" d="M102 530l230 396h198l-211 -402l213 -395h-200zM543 530l229 396h199l-211 -402l213 -395h-201z" />
<glyph unicode="&#xac;" horiz-adv-x="1370" d="M158 641v180h1054v-606h-186v426h-868z" />
<glyph unicode="&#xad;" horiz-adv-x="657" d="M57 463v164h543v-164h-543z" />
<glyph unicode="&#xae;" horiz-adv-x="958" d="M90 1128q0 104 52.5 192.5t142.5 140.5t194 52q106 0 195.5 -52t141.5 -140t52 -193q0 -104 -52 -193t-141 -141.5t-196 -52.5q-104 0 -193 52.5t-142.5 141.5t-53.5 193zM166 1128q0 -84 42 -155.5t114.5 -113.5t156.5 -42t157 42t115 113.5t42 155.5t-42 155t-115 113 t-157 42t-156.5 -42t-114.5 -113t-42 -155zM326 926v411h166q66 0 104.5 -21.5t38.5 -84.5q0 -74 -72 -96q39 -12 50.5 -40t13.5 -59.5t4 -46.5q4 -37 18 -63h-94q-6 14 -8 36.5t-2 28.5q0 18 -4 43q-6 31 -18.5 47.5t-39.5 16.5h-71v-172h-86zM412 1159h57q80 0 80 60 q0 32 -21.5 43.5t-58.5 11.5h-57v-115z" />
<glyph unicode="&#xaf;" horiz-adv-x="630" d="M4 1296v134h623v-134h-623z" />
<glyph unicode="&#xb0;" horiz-adv-x="839" d="M90 1188q0 88 44 162.5t120 118.5t166 44q88 0 163.5 -44t121 -118.5t45.5 -162.5t-45.5 -162t-121 -118t-163.5 -44t-164 44t-121 118t-45 162zM252 1188q0 -68 49 -117t119 -49t119 49t49 117q0 67 -49.5 116.5t-118.5 49.5q-70 0 -119 -49.5t-49 -116.5z" />
<glyph unicode="&#xb1;" horiz-adv-x="1370" d="M158 -43v180h1054v-180h-1054zM158 557v182h432v342h192v-342h430v-182h-430v-336h-192v336h-432z" />
<glyph unicode="&#xb2;" horiz-adv-x="780" d="M63 641v137q172 135 308.5 266.5t136.5 225.5q0 53 -34 82.5t-89 29.5q-63 0 -98 -36.5t-35 -102.5h-176q2 135 90 202.5t225 67.5q123 0 210 -59t87 -176q0 -88 -63.5 -179t-140 -161t-191.5 -162h403v-135h-633z" />
<glyph unicode="&#xb3;" horiz-adv-x="780" d="M45 893h172q0 -70 44 -104.5t114 -34.5q68 0 117 34.5t49 100.5q0 72 -58.5 102.5t-138.5 30.5q-23 0 -55 -6v131q25 -4 63 -4q74 0 125 30.5t51 98.5q0 57 -44 88t-105 31q-139 0 -148 -136h-172q2 131 95.5 194.5t228.5 63.5q125 0 220 -59t95 -176q0 -70 -38.5 -115 t-108.5 -76q162 -57 162 -208q0 -125 -103.5 -188.5t-236.5 -63.5q-141 0 -232.5 63.5t-95.5 202.5z" />
<glyph unicode="&#xb4;" horiz-adv-x="630" d="M156 1210l206 297h277l-313 -297h-170z" />
<glyph unicode="&#xb6;" horiz-adv-x="1259" d="M57 1053q0 217 146.5 322.5t390.5 105.5h479v-1481h-192v1323h-217v-1323h-193v655q-201 16 -307.5 119t-106.5 279z" />
<glyph unicode="&#xb7;" horiz-adv-x="614" d="M186 524v228h244v-228h-244z" />
<glyph unicode="&#xb8;" horiz-adv-x="630" d="M74 -360l20 77q109 -49 193 -49q102 0 102 74t-90 74q-23 0 -47 -13l-55 19l84 192h84l-56 -125q12 2 41 2q78 0 134.5 -33.5t56.5 -107.5q0 -86 -74 -122t-168 -36q-104 0 -225 48z" />
<glyph unicode="&#xb9;" horiz-adv-x="780" d="M147 1200v146q72 25 120 53t108 82h145v-856h-172v680q-90 -66 -201 -105z" />
<glyph unicode="&#xba;" horiz-adv-x="772" d="M57 1190q0 150 89.5 236.5t240.5 86.5q150 0 239 -86t89 -233q0 -152 -88 -239t-240 -87t-241 87t-89 235zM227 1192q0 -86 39 -148.5t121 -62.5t120 61.5t38 149.5t-38 148.5t-120 60.5t-121 -61.5t-39 -147.5z" />
<glyph unicode="&#xbb;" horiz-adv-x="1073" d="M102 926h199l231 -402l-229 -395h-199l209 401zM543 926h200l228 -402l-228 -395h-198l211 401z" />
<glyph unicode="&#xbc;" horiz-adv-x="1923" d="M158 1198v148q72 25 118 53t107 82h145v-860h-172v684q-98 -72 -198 -107zM442 -53l871 1593h166l-867 -1593h-170zM1165 180v144l381 536h193v-555h137v-125h-137v-180h-164v180h-410zM1311 305h266v383z" />
<glyph unicode="&#xbd;" horiz-adv-x="1921" d="M158 1198v148q72 25 118 53t107 82h145v-860h-172v684q-98 -72 -198 -107zM442 -53l871 1593h166l-867 -1593h-170zM1196 0v137q178 141 311 270.5t133 223.5q0 53 -34.5 83.5t-89.5 30.5q-63 0 -97.5 -36.5t-34.5 -104.5h-178q2 135 90 204t226 69q123 0 210 -59.5 t87 -178.5q0 -88 -63.5 -179t-139.5 -160t-193 -165h404v-135h-631z" />
<glyph unicode="&#xbe;" horiz-adv-x="1923" d="M53 889h172q0 -70 45 -104.5t115 -34.5q68 0 116 34.5t48 100.5q0 72 -56.5 102.5t-138.5 30.5q-35 0 -57 -4v131q37 -6 63 -6q74 0 125.5 30.5t51.5 98.5q0 57 -44 89t-106 32q-139 0 -147 -136h-172q2 131 95 195.5t228 64.5q123 0 219.5 -60t96.5 -177q0 -72 -39 -117 t-109 -76q162 -57 162 -209q0 -126 -102.5 -188.5t-235.5 -62.5q-141 0 -233.5 64.5t-96.5 201.5zM442 -53l871 1593h168l-869 -1593h-170zM1167 180v144l381 536h191v-555h137v-125h-137v-180h-164v180h-408zM1311 305h266v383z" />
<glyph unicode="&#xbf;" horiz-adv-x="1085" d="M143 -82q0 86 38 157.5t91.5 126t141.5 128.5l39 35q53 47 72.5 77.5t19.5 92.5v129h207v-160q0 -43 -4.5 -69.5t-22.5 -55.5q-23 -37 -55.5 -71t-87.5 -83q-90 -82 -137.5 -144.5t-47.5 -141.5q0 -117 85 -172.5t210 -55.5q90 0 215 35v-184q-131 -25 -260 -25 q-217 0 -360.5 88t-143.5 293zM524 811v236h250v-236h-250z" />
<glyph unicode="&#xc0;" horiz-adv-x="1505" d="M0 0l604 1481h281l620 -1481h-284l-142 369h-686l-139 -369h-254zM432 1886h281l202 -297h-167zM463 549h545l-277 729z" />
<glyph unicode="&#xc1;" horiz-adv-x="1505" d="M0 0l604 1481h281l620 -1481h-284l-142 369h-686l-139 -369h-254zM463 549h545l-277 729zM602 1589l207 297h276l-313 -297h-170z" />
<glyph unicode="&#xc2;" horiz-adv-x="1505" d="M0 0l604 1481h281l620 -1481h-284l-142 369h-686l-139 -369h-254zM416 1589l227 299h234l223 -299h-172l-168 187l-170 -187h-174zM463 549h545l-277 729z" />
<glyph unicode="&#xc3;" horiz-adv-x="1505" d="M0 0l604 1481h281l620 -1481h-284l-142 369h-686l-139 -369h-254zM403 1624q12 94 76 156.5t158 62.5q49 0 135 -28q84 -31 135 -31q61 0 82 69h123q-12 -90 -73.5 -155.5t-149.5 -65.5q-49 0 -135 29q-33 10 -70 19.5t-68 9.5q-74 0 -96 -66h-117zM463 549h545l-277 729 z" />
<glyph unicode="&#xc4;" horiz-adv-x="1505" d="M0 0l604 1481h281l620 -1481h-284l-142 369h-686l-139 -369h-254zM426 1657v207h231v-207h-231zM463 549h545l-277 729zM858 1657v207h232v-207h-232z" />
<glyph unicode="&#xc5;" horiz-adv-x="1505" d="M0 0l604 1481h281l620 -1481h-284l-142 369h-686l-139 -369h-254zM463 549h545l-277 729zM549 1729q0 82 60.5 140t144.5 58t144 -58.5t60 -139.5q0 -82 -60 -141.5t-144 -59.5q-86 0 -145.5 59.5t-59.5 141.5zM643 1729q0 -45 33 -78t78 -33t77.5 32.5t32.5 78.5 q0 45 -32.5 76.5t-77.5 31.5t-78 -31.5t-33 -76.5z" />
<glyph unicode="&#xc6;" horiz-adv-x="2011" d="M-12 0l778 1481h1128v-193h-733l66 -436h631v-190h-607l70 -469h596v-193h-819l-56 362h-610l-186 -362h-258zM520 543h500l-111 755z" />
<glyph unicode="&#xc7;" horiz-adv-x="1433" d="M98 727q0 217 78 394t232.5 281.5t375.5 104.5q141 0 265.5 -46t203 -144t82.5 -246h-262q-12 115 -92 176.5t-197 61.5q-145 0 -240 -86t-138.5 -219.5t-43.5 -276.5q0 -229 98.5 -395t313.5 -166q119 0 204 61.5t101 175.5h267q-29 -215 -189 -321.5t-387 -106.5h-2 l-31 -81q12 2 39 2q78 0 134.5 -35t56.5 -109q0 -86 -73 -123t-167 -37q-106 0 -227 48l22 79q113 -51 193 -51q100 0 100 76q0 41 -27.5 58.5t-70.5 17.5q-8 0 -24.5 -4t-26.5 -4q-8 0 -29 10q-2 2 -12 4l65 151q-295 25 -443.5 228t-148.5 522z" />
<glyph unicode="&#xc8;" horiz-adv-x="1263" d="M186 0v1481h959v-189h-709v-440h676v-186h-676v-478h735v-188h-985zM375 1886h280l203 -297h-168z" />
<glyph unicode="&#xc9;" horiz-adv-x="1263" d="M186 0v1481h959v-189h-709v-440h676v-186h-676v-478h735v-188h-985zM516 1589l207 297h276l-313 -297h-170z" />
<glyph unicode="&#xca;" horiz-adv-x="1263" d="M186 0v1481h959v-189h-709v-440h676v-186h-676v-478h735v-188h-985zM344 1589l227 299h234l223 -299h-172l-168 187l-170 -187h-174z" />
<glyph unicode="&#xcb;" horiz-adv-x="1263" d="M186 0v1481h959v-189h-709v-440h676v-186h-676v-478h735v-188h-985zM344 1657v207h231v-207h-231zM776 1657v207h232v-207h-232z" />
<glyph unicode="&#xcc;" horiz-adv-x="638" d="M-6 1886h280l203 -297h-168zM195 0v1481h254v-1481h-254z" />
<glyph unicode="&#xcd;" horiz-adv-x="638" d="M162 1589l207 297h276l-313 -297h-170zM193 0v1481h253v-1481h-253z" />
<glyph unicode="&#xce;" horiz-adv-x="638" d="M-20 1589l227 299h233l224 -299h-172l-168 187l-170 -187h-174zM193 0v1481h253v-1481h-253z" />
<glyph unicode="&#xcf;" horiz-adv-x="638" d="M-10 1657v207h231v-207h-231zM195 0v1481h254v-1481h-254zM422 1657v207h231v-207h-231z" />
<glyph unicode="&#xd0;" horiz-adv-x="1560" d="M49 737v152h137v592h473q375 0 589 -183.5t214 -549.5q0 -318 -153.5 -510.5t-464.5 -227.5q-104 -10 -250 -10h-408v737h-137zM440 186h232q279 0 403.5 140.5t124.5 421.5q1 336 -196 469q-70 47 -159 62t-204 15h-201v-405h375v-152h-375v-551z" />
<glyph unicode="&#xd1;" horiz-adv-x="1593" d="M182 0v1481h348l656 -1239v1239h225v-1481h-348l-655 1239v-1239h-226zM434 1624q12 94 75.5 156.5t158.5 62.5q53 0 137 -31q86 -29 133 -28q61 0 82 69h123q-13 -90 -74 -155.5t-149 -65.5q-49 0 -136 29q-33 10 -69.5 19.5t-67.5 9.5q-74 0 -96 -66h-117z" />
<glyph unicode="&#xd2;" horiz-adv-x="1572" d="M98 739q0 221 77 396.5t232.5 276.5t380.5 101q229 0 384 -98t229 -270t74 -397q0 -222 -77 -397t-231.5 -276.5t-382.5 -101.5q-227 0 -381.5 98.5t-229.5 271.5t-75 396zM358 745q0 -242 100.5 -410.5t325.5 -168.5t326.5 169t101.5 410q0 244 -100 410t-328 166 q-152 0 -247 -83t-137 -214t-42 -279zM467 1886h281l202 -297h-168z" />
<glyph unicode="&#xd3;" horiz-adv-x="1572" d="M98 739q0 221 77 396.5t232.5 276.5t380.5 101q229 0 384 -98t229 -270t74 -397q0 -222 -77 -397t-231.5 -276.5t-382.5 -101.5q-227 0 -381.5 98.5t-229.5 271.5t-75 396zM358 745q0 -242 100.5 -410.5t325.5 -168.5t326.5 169t101.5 410q0 244 -100 410t-328 166 q-152 0 -247 -83t-137 -214t-42 -279zM621 1589l206 297h277l-313 -297h-170z" />
<glyph unicode="&#xd4;" horiz-adv-x="1572" d="M98 739q0 221 77 396.5t232.5 276.5t380.5 101q229 0 384 -98t229 -270t74 -397q0 -222 -77 -397t-231.5 -276.5t-382.5 -101.5q-227 0 -381.5 98.5t-229.5 271.5t-75 396zM358 745q0 -242 100.5 -410.5t325.5 -168.5t326.5 169t101.5 410q0 244 -100 410t-328 166 q-152 0 -247 -83t-137 -214t-42 -279zM446 1589l228 299h233l223 -299h-172l-167 187l-170 -187h-175z" />
<glyph unicode="&#xd5;" horiz-adv-x="1572" d="M98 739q0 221 77 396.5t232.5 276.5t380.5 101q229 0 384 -98t229 -270t74 -397q0 -222 -77 -397t-231.5 -276.5t-382.5 -101.5q-227 0 -381.5 98.5t-229.5 271.5t-75 396zM358 745q0 -242 100.5 -410.5t325.5 -168.5t326.5 169t101.5 410q0 244 -100 410t-328 166 q-152 0 -247 -83t-137 -214t-42 -279zM426 1624q12 94 75.5 156.5t157.5 62.5q53 0 138 -31q86 -29 133 -28q61 0 82 69h123q-13 -90 -74.5 -155.5t-149.5 -65.5q-49 0 -135 29q-33 10 -69.5 19.5t-67.5 9.5q-74 0 -96 -66h-117z" />
<glyph unicode="&#xd6;" horiz-adv-x="1572" d="M98 739q0 221 77 396.5t232.5 276.5t380.5 101q229 0 384 -98t229 -270t74 -397q0 -222 -77 -397t-231.5 -276.5t-382.5 -101.5q-227 0 -381.5 98.5t-229.5 271.5t-75 396zM358 745q0 -242 100.5 -410.5t325.5 -168.5t326.5 169t101.5 410q0 244 -100 410t-328 166 q-152 0 -247 -83t-137 -214t-42 -279zM457 1657v207h231v-207h-231zM889 1657v207h231v-207h-231z" />
<glyph unicode="&#xd7;" horiz-adv-x="1372" d="M180 145l375 373l-375 375l133 131l373 -375l373 375l133 -131l-375 -375l373 -373l-131 -131l-373 375l-373 -373z" />
<glyph unicode="&#xd8;" horiz-adv-x="1572" d="M35 31l194 209q-131 199 -131 499q0 221 77 396.5t232.5 276.5t380.5 101q301 0 476 -167l178 190l96 -96l-188 -201q125 -190 125 -491q0 -222 -77 -397t-231.5 -276.5t-382.5 -101.5q-291 0 -465 162l-186 -198zM358 745q0 -180 52 -313l690 739q-109 150 -316 150 q-152 0 -247 -83t-137 -214t-42 -279zM479 307q109 -141 305 -141q227 0 327.5 168t100.5 411q0 174 -45 297z" />
<glyph unicode="&#xd9;" horiz-adv-x="1589" d="M174 594v887h262v-879q0 -209 81 -323.5t282 -114.5q199 0 280.5 118.5t81.5 325.5v873h254v-893q0 -305 -157.5 -461t-464.5 -156q-315 0 -467 155t-152 468zM473 1886h281l202 -297h-168z" />
<glyph unicode="&#xda;" horiz-adv-x="1589" d="M174 594v887h262v-879q0 -209 81 -323.5t282 -114.5q199 0 280.5 118.5t81.5 325.5v873h254v-893q0 -305 -157.5 -461t-464.5 -156q-315 0 -467 155t-152 468zM641 1589l207 297h276l-313 -297h-170z" />
<glyph unicode="&#xdb;" horiz-adv-x="1589" d="M174 594v887h262v-879q0 -209 81 -323.5t282 -114.5q199 0 280.5 118.5t81.5 325.5v873h254v-893q0 -305 -157.5 -461t-464.5 -156q-315 0 -467 155t-152 468zM453 1589l227 299h233l224 -299h-172l-168 187l-170 -187h-174z" />
<glyph unicode="&#xdc;" horiz-adv-x="1589" d="M174 594v887h262v-879q0 -209 81 -323.5t282 -114.5q199 0 280.5 118.5t81.5 325.5v873h254v-893q0 -305 -157.5 -461t-464.5 -156q-315 0 -467 155t-152 468zM463 1657v207h231v-207h-231zM895 1657v207h231v-207h-231z" />
<glyph unicode="&#xdd;" horiz-adv-x="1351" d="M-27 1483h297l420 -686l414 686h274l-575 -893v-590h-254v600zM545 1589l207 297h276l-313 -297h-170z" />
<glyph unicode="&#xde;" horiz-adv-x="1316" d="M186 0v1481h254v-244h213q131 0 236.5 -15.5t181.5 -66.5q90 -59 137 -155.5t47 -208.5q0 -256 -176 -346.5t-452 -90.5h-187v-354h-254zM440 545h187q170 0 268 53t98 207q0 141 -86 191.5t-239 50.5h-228v-502z" />
<glyph unicode="&#xdf;" horiz-adv-x="1374" d="M154 0v926q0 125 15 217t69 168q68 98 180 145t241 47q176 0 308.5 -78.5t132.5 -242.5q0 -70 -33 -115t-90 -90q-63 -51 -82 -70q-37 -41 -37 -82q0 -57 70 -106q27 -18 71 -43l82 -43q106 -57 168 -126t62 -179q0 -113 -56.5 -191t-150.5 -116.5t-203 -38.5 q-164 0 -268.5 78.5t-108.5 240.5h219q0 -80 43 -125t119 -45t126 52.5t50 127.5q0 63 -37.5 106.5t-105.5 80.5q-16 8 -35.5 20t-46.5 25q-111 57 -170 113.5t-59 152.5q0 66 33.5 111t101.5 100l33 27q76 63 75 129q0 82 -63.5 129t-149.5 47q-162 0 -215 -99.5 t-53 -275.5v-977h-235z" />
<glyph unicode="&#xe0;" horiz-adv-x="1126" d="M59 291q0 162 111 237.5t250 93t332 17.5v53q0 113 -45 169.5t-154 56.5q-90 0 -136 -42t-52 -135h-230q2 168 119 243t293 75q219 0 327.5 -87t108.5 -306v-306q0 -184 21 -360h-224q-8 47 -16 141q-61 -88 -144 -126t-196 -38q-158 0 -261.5 81t-103.5 233zM236 1507 h280l203 -297h-168zM295 301q0 -80 59.5 -127t141.5 -47q154 0 206 104.5t52 278.5q-31 2 -84 2q-152 0 -263.5 -44t-111.5 -167z" />
<glyph unicode="&#xe1;" horiz-adv-x="1126" d="M59 291q0 162 111 237.5t250 93t332 17.5v53q0 113 -45 169.5t-154 56.5q-90 0 -136 -42t-52 -135h-230q2 168 119 243t293 75q219 0 327.5 -87t108.5 -306v-306q0 -184 21 -360h-224q-8 47 -16 141q-61 -88 -144 -126t-196 -38q-158 0 -261.5 81t-103.5 233zM295 301 q0 -80 59.5 -127t141.5 -47q154 0 206 104.5t52 278.5q-31 2 -84 2q-152 0 -263.5 -44t-111.5 -167zM403 1210l207 297h277l-314 -297h-170z" />
<glyph unicode="&#xe2;" horiz-adv-x="1126" d="M59 291q0 162 111 237.5t250 93t332 17.5v53q0 113 -45 169.5t-154 56.5q-90 0 -136 -42t-52 -135h-230q2 168 119 243t293 75q219 0 327.5 -87t108.5 -306v-306q0 -184 21 -360h-224q-8 47 -16 141q-61 -88 -144 -126t-196 -38q-158 0 -261.5 81t-103.5 233zM223 1210 l228 299h233l223 -299h-172l-168 187l-170 -187h-174zM295 301q0 -80 59.5 -127t141.5 -47q154 0 206 104.5t52 278.5q-31 2 -84 2q-152 0 -263.5 -44t-111.5 -167z" />
<glyph unicode="&#xe3;" horiz-adv-x="1126" d="M59 291q0 162 111 237.5t250 93t332 17.5v53q0 113 -45 169.5t-154 56.5q-90 0 -136 -42t-52 -135h-230q2 168 119 243t293 75q219 0 327.5 -87t108.5 -306v-306q0 -184 21 -360h-224q-8 47 -16 141q-61 -88 -144 -126t-196 -38q-158 0 -261.5 81t-103.5 233zM211 1243 q12 94 75.5 156.5t157.5 62.5q57 0 138 -30q33 -10 67.5 -19.5t65.5 -9.5q61 0 82 70h123q-13 -91 -74.5 -156.5t-149.5 -65.5q-49 0 -135 29q-33 10 -69.5 19.5t-67.5 9.5q-72 0 -96 -66h-117zM295 301q0 -80 59.5 -127t141.5 -47q154 0 206 104.5t52 278.5q-31 2 -84 2 q-152 0 -263.5 -44t-111.5 -167z" />
<glyph unicode="&#xe4;" horiz-adv-x="1126" d="M59 291q0 162 111 237.5t250 93t332 17.5v53q0 113 -45 169.5t-154 56.5q-90 0 -136 -42t-52 -135h-230q2 168 119 243t293 75q219 0 327.5 -87t108.5 -306v-306q0 -184 21 -360h-224q-8 47 -16 141q-61 -88 -144 -126t-196 -38q-158 0 -261.5 81t-103.5 233zM236 1278 v207h231v-207h-231zM295 301q0 -80 59.5 -127t141.5 -47q154 0 206 104.5t52 278.5q-31 2 -84 2q-152 0 -263.5 -44t-111.5 -167zM668 1278v207h231v-207h-231z" />
<glyph unicode="&#xe5;" horiz-adv-x="1126" d="M59 291q0 162 111 237.5t250 93t332 17.5v53q0 113 -45 169.5t-154 56.5q-90 0 -136 -42t-52 -135h-230q2 168 119 243t293 75q219 0 327.5 -87t108.5 -306v-306q0 -184 21 -360h-224q-8 47 -16 141q-61 -88 -144 -126t-196 -38q-158 0 -261.5 81t-103.5 233zM295 301 q0 -80 59.5 -127t141.5 -47q154 0 206 104.5t52 278.5q-31 2 -84 2q-152 0 -263.5 -44t-111.5 -167zM369 1374q0 82 60 140.5t144 58.5t144.5 -58.5t60.5 -140.5q0 -84 -59.5 -142t-145.5 -58q-84 0 -144 59t-60 141zM463 1374q0 -45 32.5 -77.5t77.5 -32.5t78 32.5t33 77.5 t-33 77t-78 32t-77.5 -32t-32.5 -77z" />
<glyph unicode="&#xe6;" horiz-adv-x="1775" d="M55 287q0 90 48.5 160.5t132.5 113.5q70 35 160.5 47.5t207.5 12.5l146 -3q-2 92 -15.5 154t-57.5 100.5t-132 38.5q-170 0 -197 -161h-229q12 162 127.5 233.5t285.5 71.5q125 0 211 -38t144 -138q119 182 358 182q236 0 342.5 -143.5t106.5 -385.5v-55h-721 q0 -147 57 -248.5t193 -101.5q96 0 160.5 56.5t68.5 152.5h234q-23 -178 -143 -267t-302 -89q-287 0 -387 217q-113 -219 -399 -220q-100 0 -191.5 34t-150 103.5t-58.5 172.5zM295 291q0 -80 55.5 -126t138.5 -46q133 0 198 85t65 222q0 10 1 23.5t-1 29.5h-154 q-303 0 -303 -188zM975 618h491q-4 130 -59 211.5t-178 81.5q-125 0 -184.5 -79.5t-69.5 -213.5z" />
<glyph unicode="&#xe7;" horiz-adv-x="1122" d="M82 506q0 164 62.5 290t182 196.5t285.5 70.5q190 0 312.5 -94.5t138.5 -282.5h-234q-6 102 -62 162.5t-155 60.5q-150 0 -216 -114.5t-66 -278.5q0 -156 65.5 -273.5t208.5 -117.5q104 0 162.5 65.5t62.5 174.5h234l4 -9q-8 -182 -133 -279t-311 -102l-33 -81q12 2 41 2 q78 0 134 -35t56 -109q0 -86 -73.5 -123t-167.5 -37q-104 0 -226 48l21 79q113 -51 192 -51q102 0 103 76q0 74 -99 74q-14 0 -26.5 -3t-26.5 -3q-6 0 -26 10l-15 4l66 151q-221 16 -341 156.5t-120 372.5z" />
<glyph unicode="&#xe8;" horiz-adv-x="1144" d="M80 500q0 252 132 404.5t382 152.5q258 0 364.5 -159t106.5 -429h-752v-16q0 -139 72 -232.5t205 -93.5q100 0 163.5 56.5t77.5 156.5h230q-29 -182 -159 -272.5t-320 -90.5q-242 0 -372 140.5t-130 382.5zM281 1507h280l203 -297h-168zM319 614h515q0 125 -61.5 208 t-182.5 83t-189.5 -83t-81.5 -208z" />
<glyph unicode="&#xe9;" horiz-adv-x="1144" d="M80 500q0 252 132 404.5t382 152.5q258 0 364.5 -159t106.5 -429h-752v-16q0 -139 72 -232.5t205 -93.5q100 0 163.5 56.5t77.5 156.5h230q-29 -182 -159 -272.5t-320 -90.5q-242 0 -372 140.5t-130 382.5zM319 614h515q0 125 -61.5 208t-182.5 83t-189.5 -83t-81.5 -208 zM446 1210l207 297h277l-314 -297h-170z" />
<glyph unicode="&#xea;" horiz-adv-x="1144" d="M80 500q0 252 132 404.5t382 152.5q258 0 364.5 -159t106.5 -429h-752v-16q0 -139 72 -232.5t205 -93.5q100 0 163.5 56.5t77.5 156.5h230q-29 -182 -159 -272.5t-320 -90.5q-242 0 -372 140.5t-130 382.5zM252 1210l227 299h234l223 -299h-172l-168 187l-170 -187h-174z M319 614h515q0 125 -61.5 208t-182.5 83t-189.5 -83t-81.5 -208z" />
<glyph unicode="&#xeb;" horiz-adv-x="1144" d="M80 500q0 252 132 404.5t382 152.5q258 0 364.5 -159t106.5 -429h-752v-16q0 -139 72 -232.5t205 -93.5q100 0 163.5 56.5t77.5 156.5h230q-29 -182 -159 -272.5t-320 -90.5q-242 0 -372 140.5t-130 382.5zM272 1278v207h232v-207h-232zM319 614h515q0 125 -61.5 208 t-182.5 83t-189.5 -83t-81.5 -208zM705 1278v207h231v-207h-231z" />
<glyph unicode="&#xec;" horiz-adv-x="544" d="M-47 1507h280l203 -297h-168zM154 0v1034h237v-1034h-237z" />
<glyph unicode="&#xed;" horiz-adv-x="544" d="M119 1210l207 297h276l-313 -297h-170zM154 0v1034h237v-1034h-237z" />
<glyph unicode="&#xee;" horiz-adv-x="544" d="M-68 1210l228 299h233l223 -299h-172l-168 187l-170 -187h-174zM154 0v1034h237v-1034h-237z" />
<glyph unicode="&#xef;" horiz-adv-x="544" d="M-57 1278v207h231v-207h-231zM154 0v1034h237v-1034h-237zM375 1278v207h231v-207h-231z" />
<glyph unicode="&#xf0;" horiz-adv-x="1224" d="M82 506q0 143 59.5 259t168 182.5t253.5 66.5q207 0 320 -168q-41 141 -119 244.5t-205 177.5l-168 -113l-88 59l150 105q-72 31 -185 61l86 162q166 -39 277 -94l157 106l89 -59l-144 -96q207 -119 308.5 -322t101.5 -452q0 -283 -130 -465.5t-405 -182.5 q-160 0 -278.5 66t-183 184.5t-64.5 278.5zM328 500q0 -152 68.5 -259.5t211.5 -107.5q150 0 217.5 113.5t67.5 275.5q0 148 -70.5 246t-212.5 98q-147 0 -214.5 -105.5t-67.5 -260.5z" />
<glyph unicode="&#xf1;" horiz-adv-x="1251" d="M147 1032h236l4 -155q66 88 146.5 129t191.5 41q373 0 373 -394v-653h-238v561q0 100 -13 166t-60.5 109t-141.5 43q-147 0 -200.5 -112t-53.5 -267v-500h-237v805q0 49 -4 151zM293 1245q10 94 74.5 156.5t158.5 62.5q49 0 136 -28q84 -31 135 -31q59 0 82 70h122 q-14 -91 -74.5 -156.5t-148.5 -65.5q-33 0 -68.5 9.5t-68.5 19.5t-68.5 19.5t-66.5 9.5q-72 0 -96 -66h-117z" />
<glyph unicode="&#xf2;" horiz-adv-x="1232" d="M82 522q0 162 66.5 283t188.5 187.5t284 66.5q248 0 389 -144.5t141 -392.5q0 -160 -65.5 -283.5t-186.5 -192.5t-283 -69q-166 0 -286.5 68t-184 190.5t-63.5 286.5zM303 1507h281l202 -297h-168zM330 520q0 -160 69.5 -276.5t216.5 -116.5t217 117.5t70 275.5 q0 160 -68.5 271.5t-218.5 111.5t-218 -111.5t-68 -271.5z" />
<glyph unicode="&#xf3;" horiz-adv-x="1232" d="M82 522q0 162 66.5 283t188.5 187.5t284 66.5q248 0 389 -144.5t141 -392.5q0 -160 -65.5 -283.5t-186.5 -192.5t-283 -69q-166 0 -286.5 68t-184 190.5t-63.5 286.5zM330 520q0 -160 69.5 -276.5t216.5 -116.5t217 117.5t70 275.5q0 160 -68.5 271.5t-218.5 111.5 t-218 -111.5t-68 -271.5zM461 1210l207 297h276l-313 -297h-170z" />
<glyph unicode="&#xf4;" horiz-adv-x="1232" d="M82 522q0 162 66.5 283t188.5 187.5t284 66.5q248 0 389 -144.5t141 -392.5q0 -160 -65.5 -283.5t-186.5 -192.5t-283 -69q-166 0 -286.5 68t-184 190.5t-63.5 286.5zM281 1210l227 299h233l224 -299h-172l-168 187l-170 -187h-174zM330 520q0 -160 69.5 -276.5 t216.5 -116.5t217 117.5t70 275.5q0 160 -68.5 271.5t-218.5 111.5t-218 -111.5t-68 -271.5z" />
<glyph unicode="&#xf5;" horiz-adv-x="1232" d="M82 522q0 162 66.5 283t188.5 187.5t284 66.5q248 0 389 -144.5t141 -392.5q0 -160 -65.5 -283.5t-186.5 -192.5t-283 -69q-166 0 -286.5 68t-184 190.5t-63.5 286.5zM268 1245q10 94 75 156.5t159 62.5q49 0 135 -28q84 -31 135 -31q59 0 82 70h123 q-14 -91 -74.5 -156.5t-148.5 -65.5q-33 0 -69 9.5t-69 19.5t-68.5 19.5t-66.5 9.5q-72 0 -96 -66h-117zM330 520q0 -160 69.5 -276.5t216.5 -116.5t217 117.5t70 275.5q0 160 -68.5 271.5t-218.5 111.5t-218 -111.5t-68 -271.5z" />
<glyph unicode="&#xf6;" horiz-adv-x="1232" d="M82 522q0 162 66.5 283t188.5 187.5t284 66.5q248 0 389 -144.5t141 -392.5q0 -160 -65.5 -283.5t-186.5 -192.5t-283 -69q-166 0 -286.5 68t-184 190.5t-63.5 286.5zM291 1278v207h231v-207h-231zM330 520q0 -160 69.5 -276.5t216.5 -116.5t217 117.5t70 275.5 q0 160 -68.5 271.5t-218.5 111.5t-218 -111.5t-68 -271.5zM723 1278v207h231v-207h-231z" />
<glyph unicode="&#xf7;" horiz-adv-x="1370" d="M158 428v182h1054v-182h-1054zM573 18v250h226v-250h-226zM573 768v252h226v-252h-226z" />
<glyph unicode="&#xf8;" horiz-adv-x="1232" d="M72 4l135 141q-125 147 -125 377q0 162 66.5 283t188.5 187.5t284 66.5q217 0 352 -111l129 133l94 -86l-139 -139q94 -135 94 -334q0 -160 -65.5 -283.5t-186.5 -193.5t-283 -70q-190 0 -321 91l-135 -142zM330 520q0 -117 35 -209l464 488q-74 104 -213 104 q-150 0 -218 -111.5t-68 -271.5zM428 205q74 -78 188 -78q147 0 217 117.5t70 275.5q0 82 -18 156z" />
<glyph unicode="&#xf9;" horiz-adv-x="1253" d="M154 379v653h237v-561q0 -100 13.5 -166.5t61.5 -108.5t142 -42q137 0 194.5 95t57.5 243v540h238v-659q0 -123 8 -373h-236l-6 156q-68 -88 -145.5 -129t-188.5 -41q-188 0 -282 102t-94 291zM307 1507h281l203 -297h-168z" />
<glyph unicode="&#xfa;" horiz-adv-x="1253" d="M154 379v653h237v-561q0 -100 13.5 -166.5t61.5 -108.5t142 -42q137 0 194.5 95t57.5 243v540h238v-659q0 -123 8 -373h-236l-6 156q-68 -88 -145.5 -129t-188.5 -41q-188 0 -282 102t-94 291zM463 1210l207 297h276l-313 -297h-170z" />
<glyph unicode="&#xfb;" horiz-adv-x="1253" d="M154 379v653h237v-561q0 -100 13.5 -166.5t61.5 -108.5t142 -42q137 0 194.5 95t57.5 243v540h238v-659q0 -123 8 -373h-236l-6 156q-68 -88 -145.5 -129t-188.5 -41q-188 0 -282 102t-94 291zM289 1210l227 299h234l223 -299h-172l-168 187l-170 -187h-174z" />
<glyph unicode="&#xfc;" horiz-adv-x="1253" d="M154 379v653h237v-561q0 -100 13.5 -166.5t61.5 -108.5t142 -42q137 0 194.5 95t57.5 243v540h238v-659q0 -123 8 -373h-236l-6 156q-68 -88 -145.5 -129t-188.5 -41q-188 0 -282 102t-94 291zM299 1278v207h231v-207h-231zM731 1278v207h232v-207h-232z" />
<glyph unicode="&#xfd;" horiz-adv-x="1126" d="M12 1032h281l293 -788l295 788h233l-582 -1421h-227l158 389zM420 1210l207 297h276l-313 -297h-170z" />
<glyph unicode="&#xfe;" horiz-adv-x="1255" d="M147 -389v1870h238v-604q63 92 145 136t197 44q145 0 245.5 -72t148.5 -189.5t48 -260.5q0 -146 -51 -273t-155.5 -204.5t-255.5 -77.5q-106 0 -181 38.5t-141 124.5v-532h-238zM383 516q0 -154 60.5 -265.5t199.5 -111.5q147 0 214 114t67 273q0 152 -60.5 263.5 t-199.5 111.5q-145 0 -213 -113.5t-68 -271.5z" />
<glyph unicode="&#xff;" horiz-adv-x="1126" d="M12 1032h281l293 -788l295 788h233l-582 -1421h-227l158 389zM250 1278v207h231v-207h-231zM682 1278v207h231v-207h-231z" />
<glyph unicode="&#x152;" horiz-adv-x="2023" d="M98 739q0 365 200 560.5t566 195.5q61 0 107.5 -2t77.5 -4q119 -8 182 -8h676v-193h-633v-436h596v-190h-596v-469h655v-193l-493 2q-94 0 -279 -8q-47 -2 -115.5 -4t-160.5 -2q-377 0 -580 189.5t-203 561.5zM352 737q0 -260 128 -412.5t384 -152.5q68 0 164 18v1104 q-74 15 -162 15q-258 0 -386 -155t-128 -417z" />
<glyph unicode="&#x153;" horiz-adv-x="1902" d="M82 520q0 160 60.5 282t177 189.5t278.5 67.5q262 0 393 -211q47 102 147.5 154.5t221.5 52.5q264 0 362.5 -153.5t98.5 -432.5h-725q0 -145 59 -241.5t195 -96.5q92 0 154.5 55.5t74.5 147.5h231q-25 -180 -149.5 -267t-312.5 -87q-121 0 -218.5 53t-148.5 155 q-129 -209 -381 -208q-162 0 -279.5 67.5t-178 190t-60.5 282.5zM334 508q0 -156 62.5 -263.5t205.5 -107.5q141 0 202.5 108.5t61.5 264.5q0 160 -60.5 273.5t-205.5 113.5t-205.5 -113.5t-60.5 -275.5zM1102 621h485q-4 124 -62.5 204t-178.5 80q-119 0 -178.5 -80 t-65.5 -204z" />
<glyph unicode="&#x178;" horiz-adv-x="1351" d="M-27 1483h297l420 -686l414 686h274l-575 -893v-590h-254v600zM365 1657v207h231v-207h-231zM797 1657v207h231v-207h-231z" />
<glyph unicode="&#x2c6;" horiz-adv-x="630" d="M-27 1210l228 299h233l223 -299h-172l-168 187l-170 -187h-174z" />
<glyph unicode="&#x2dc;" horiz-adv-x="630" d="M-39 1245q12 94 75.5 156.5t158.5 62.5q49 0 135 -28q84 -31 135 -31q61 0 82 70h123q-13 -91 -74 -156.5t-150 -65.5q-49 0 -135 29q-33 10 -69.5 19.5t-67.5 9.5q-72 0 -96 -66h-117z" />
<glyph unicode="&#x2000;" horiz-adv-x="963" />
<glyph unicode="&#x2001;" horiz-adv-x="1927" />
<glyph unicode="&#x2002;" horiz-adv-x="963" />
<glyph unicode="&#x2003;" horiz-adv-x="1927" />
<glyph unicode="&#x2004;" horiz-adv-x="642" />
<glyph unicode="&#x2005;" horiz-adv-x="481" />
<glyph unicode="&#x2006;" horiz-adv-x="321" />
<glyph unicode="&#x2007;" horiz-adv-x="321" />
<glyph unicode="&#x2008;" horiz-adv-x="240" />
<glyph unicode="&#x2009;" horiz-adv-x="385" />
<glyph unicode="&#x200a;" horiz-adv-x="107" />
<glyph unicode="&#x2010;" horiz-adv-x="657" d="M57 463v164h543v-164h-543z" />
<glyph unicode="&#x2011;" horiz-adv-x="657" d="M57 463v164h543v-164h-543z" />
<glyph unicode="&#x2012;" horiz-adv-x="657" d="M57 463v164h543v-164h-543z" />
<glyph unicode="&#x2013;" horiz-adv-x="1024" d="M0 463v155h1024v-155h-1024z" />
<glyph unicode="&#x2014;" horiz-adv-x="2066" d="M274 463v155h1518v-155h-1518z" />
<glyph unicode="&#x2018;" horiz-adv-x="632" d="M137 1034l178 447h181l-107 -447h-252z" />
<glyph unicode="&#x2019;" horiz-adv-x="632" d="M137 1034l107 447h250l-179 -447h-178z" />
<glyph unicode="&#x201a;" horiz-adv-x="641" d="M137 -219l115 448h252l-187 -448h-180z" />
<glyph unicode="&#x201c;" horiz-adv-x="1081" d="M137 1034l195 447h176l-119 -447h-252zM573 1034l193 447h178l-119 -447h-252z" />
<glyph unicode="&#x201d;" horiz-adv-x="1079" d="M137 1034l117 447h254l-193 -447h-178zM571 1034l119 447h252l-192 -447h-179z" />
<glyph unicode="&#x201e;" horiz-adv-x="1077" d="M137 -219l115 448h252l-187 -448h-180zM573 -219l115 448h252l-186 -448h-181z" />
<glyph unicode="&#x2022;" horiz-adv-x="1044" d="M147 741q0 100 51.5 185.5t137.5 134.5t186 49t186.5 -50t137.5 -134t51 -185q0 -100 -50 -185t-136 -135t-189 -50q-102 0 -188 50t-136.5 135t-50.5 185z" />
<glyph unicode="&#x2026;" horiz-adv-x="2066" d="M229 0v229h242v-229h-242zM911 0v229h244v-229h-244zM1593 0v229h244v-229h-244z" />
<glyph unicode="&#x202f;" horiz-adv-x="385" />
<glyph unicode="&#x2039;" horiz-adv-x="632" d="M102 530l230 396h198l-211 -402l211 -395h-198z" />
<glyph unicode="&#x203a;" horiz-adv-x="632" d="M102 926h199l229 -402l-229 -395h-197l209 401z" />
<glyph unicode="&#x205f;" horiz-adv-x="481" />
<glyph unicode="&#x2122;" horiz-adv-x="1951" d="M145 1368v111h654v-111h-250v-629h-152v629h-252zM870 739v740h224l192 -547l193 547h219v-740h-144l5 613l-218 -613h-118l-215 613v-613h-138z" />
<glyph unicode="&#x25fc;" horiz-adv-x="1034" d="M0 0v1034h1034v-1034h-1034z" />
<glyph unicode="&#xfb01;" horiz-adv-x="1273" d="M29 874v160h204v99q0 113 23 189.5t91.5 122.5t199.5 46q53 0 172 -8v-166q-65 4 -90 4q-90 0 -125 -37t-35 -129v-121h233v-160h-233v-874h-238v874h-202zM872 1270v211h256v-211h-256zM881 0v1034h237v-1034h-237z" />
<glyph unicode="&#xfb02;" horiz-adv-x="1271" d="M29 874v160h204v99q0 113 23 189.5t91.5 122.5t199.5 46q53 0 172 -8v-166q-65 4 -90 4q-90 0 -125 -37t-35 -129v-121h233v-160h-233v-874h-238v874h-202zM881 0v1481h237v-1481h-237z" />
</font>
</defs>
</svg>
